<svg viewBox="0 0 800 600" xmlns="http://www.w3.org/2000/svg">
<rect fill="rgba(177, 210, 123, 1)" height="100%" width="100%"/>
<line stroke="rgba(0, 95, 106, 1)" stroke-width="2px" x1="50" x2="50" y1="400" y2="200"/>
<line stroke="rgba(0, 95, 106, 1)" stroke-width="2px" x1="50" x2="50" y1="200" y2="300"/>
<line stroke="rgba(0, 95, 106, 1)" stroke-width="2px" x1="50" x2="100" y1="300" y2="300"/>
<line stroke="rgba(0, 95, 106, 1)" stroke-width="2px" x1="100" x2="100" y1="300" y2="200"/>
<line stroke="rgba(0, 95, 106, 1)" stroke-width="2px" x1="100" x2="100" y1="200" y2="400"/>
<line stroke="rgba(0, 95, 106, 1)" stroke-width="2px" x1="200" x2="199.3" y1="400" y2="400"/>
<line stroke="rgba(0, 95, 106, 1)" stroke-width="2px" x1="199.3" x2="198.60010661339055" y1="400" y2="399.9877833154939"/>
<line stroke="rgba(0, 95, 106, 1)" stroke-width="2px" x1="198.60010661339055" x2="197.9005330344772" y1="399.9877833154939" y2="399.96335366780215"/>
<line stroke="rgba(0, 95, 106, 1)" stroke-width="2px" x1="197.9005330344772" x2="197.20149236014905" y1="399.96335366780215" y2="399.92671849843214"/>
<line stroke="rgba(0, 95, 106, 1)" stroke-width="2px" x1="197.20149236014905" x2="196.50319752496716" y1="399.92671849843214" y2="399.87788896681127"/>
<line stroke="rgba(0, 95, 106, 1)" stroke-width="2px" x1="196.50319752496716" x2="195.80586123630297" y1="399.87788896681127" y2="399.81687994688787"/>
<line stroke="rgba(0, 95, 106, 1)" stroke-width="2px" x1="195.80586123630297" x2="195.1096959095452" y1="399.81687994688787" y2="399.7437100226005"/>
<line stroke="rgba(0, 95, 106, 1)" stroke-width="2px" x1="195.1096959095452" x2="194.41491360339623" y1="399.7437100226005" y2="399.6584014822169"/>
<line stroke="rgba(0, 95, 106, 1)" stroke-width="2px" x1="194.41491360339623" x2="193.72172595527712" y1="399.6584014822169" y2="399.5609803115449"/>
<line stroke="rgba(0, 95, 106, 1)" stroke-width="2px" x1="193.72172595527712" x2="193.03034411686053" y1="399.5609803115449" y2="399.45147618601675"/>
<line stroke="rgba(0, 95, 106, 1)" stroke-width="2px" x1="193.03034411686053" x2="192.340978689752" y1="399.45147618601675" y2="399.32992246164986"/>
<line stroke="rgba(0, 95, 106, 1)" stroke-width="2px" x1="192.340978689752" x2="191.65383966133865" y1="399.32992246164986" y2="399.1963561648863"/>
<line stroke="rgba(0, 95, 106, 1)" stroke-width="2px" x1="191.65383966133865" x2="190.96913634082495" y1="399.1963561648863" y2="399.0508179813139"/>
<line stroke="rgba(0, 95, 106, 1)" stroke-width="2px" x1="190.96913634082495" x2="190.28707729547529" y1="399.0508179813139" y2="398.89335224327317"/>
<line stroke="rgba(0, 95, 106, 1)" stroke-width="2px" x1="190.28707729547529" x2="189.60787028708208" y1="398.89335224327317" y2="398.72400691635346"/>
<line stroke="rgba(0, 95, 106, 1)" stroke-width="2px" x1="189.60787028708208" x2="188.93172220867973" y1="398.72400691635346" y2="398.54283358478165"/>
<line stroke="rgba(0, 95, 106, 1)" stroke-width="2px" x1="188.93172220867973" x2="188.2588390215229" y1="398.54283358478165" y2="398.3498874357098"/>
<line stroke="rgba(0, 95, 106, 1)" stroke-width="2px" x1="188.2588390215229" x2="187.5894256923488" y1="398.3498874357098" y2="398.14522724240385"/>
<line stroke="rgba(0, 95, 106, 1)" stroke-width="2px" x1="187.5894256923488" x2="186.9236861309422" y1="398.14522724240385" y2="397.92891534634134"/>
<line stroke="rgba(0, 95, 106, 1)" stroke-width="2px" x1="186.9236861309422" x2="186.26182312802268" y1="397.92891534634134" y2="397.70101763822134"/>
<line stroke="rgba(0, 95, 106, 1)" stroke-width="2px" x1="186.26182312802268" x2="185.60403829347257" y1="397.70101763822134" y2="397.4616035378934"/>
<line stroke="rgba(0, 95, 106, 1)" stroke-width="2px" x1="185.60403829347257" x2="184.95053199492452" y1="397.4616035378934" y2="397.2107459732117"/>
<line stroke="rgba(0, 95, 106, 1)" stroke-width="2px" x1="184.95053199492452" x2="184.30150329672776" y1="397.2107459732117" y2="396.94852135782054"/>
<line stroke="rgba(0, 95, 106, 1)" stroke-width="2px" x1="184.30150329672776" x2="183.65714989931104" y1="396.94852135782054" y2="396.6750095678781"/>
<line stroke="rgba(0, 95, 106, 1)" stroke-width="2px" x1="183.65714989931104" x2="183.0176680789612" y1="396.6750095678781" y2="396.390293917725"/>
<line stroke="rgba(0, 95, 106, 1)" stroke-width="2px" x1="183.0176680789612" x2="182.38325262803556" y1="396.390293917725" y2="396.0944611345065"/>
<line stroke="rgba(0, 95, 106, 1)" stroke-width="2px" x1="182.38325262803556" x2="181.75409679562617" y1="396.0944611345065" y2="395.78760133175416"/>
<line stroke="rgba(0, 95, 106, 1)" stroke-width="2px" x1="181.75409679562617" x2="181.13039222869432" y1="395.78760133175416" y2="395.46980798193647"/>
<line stroke="rgba(0, 95, 106, 1)" stroke-width="2px" x1="181.13039222869432" x2="180.51232891369307" y1="395.46980798193647" y2="395.1411778879864"/>
<line stroke="rgba(0, 95, 106, 1)" stroke-width="2px" x1="180.51232891369307" x2="179.90009511869548" y1="395.1411778879864" y2="394.8018111538139"/>
<line stroke="rgba(0, 95, 106, 1)" stroke-width="2px" x1="179.90009511869548" x2="179.29387733604636" y1="394.8018111538139" y2="394.45181115381394"/>
<line stroke="rgba(0, 95, 106, 1)" stroke-width="2px" x1="179.29387733604636" x2="178.6938602255549" y1="394.45181115381394" y2="394.0912845013769"/>
<line stroke="rgba(0, 95, 106, 1)" stroke-width="2px" x1="178.6938602255549" x2="178.1002265582454" y1="394.0912845013769" y2="393.7203410164136"/>
<line stroke="rgba(0, 95, 106, 1)" stroke-width="2px" x1="178.1002265582454" x2="177.5131571606836" y1="393.7203410164136" y2="393.33909369190314"/>
<line stroke="rgba(0, 95, 106, 1)" stroke-width="2px" x1="177.5131571606836" x2="176.93283085989503" y1="393.33909369190314" y2="392.94765865947363"/>
<line stroke="rgba(0, 95, 106, 1)" stroke-width="2px" x1="176.93283085989503" x2="176.3594244288927" y1="392.94765865947363" y2="392.5461551540279"/>
<line stroke="rgba(0, 95, 106, 1)" stroke-width="2px" x1="176.3594244288927" x2="175.79311253283024" y1="392.5461551540279" y2="392.13470547742315"/>
<line stroke="rgba(0, 95, 106, 1)" stroke-width="2px" x1="175.79311253283024" x2="175.23406767579712" y1="392.13470547742315" y2="391.7134349612167"/>
<line stroke="rgba(0, 95, 106, 1)" stroke-width="2px" x1="175.23406767579712" x2="174.6824601482724" y1="391.7134349612167" y2="391.28247192848875"/>
<line stroke="rgba(0, 95, 106, 1)" stroke-width="2px" x1="174.6824601482724" x2="174.13845797525252" y1="391.28247192848875" y2="390.8419476547539"/>
<line stroke="rgba(0, 95, 106, 1)" stroke-width="2px" x1="174.13845797525252" x2="173.60222686506924" y1="390.8419476547539" y2="390.3919963279733"/>
<line stroke="rgba(0, 95, 106, 1)" stroke-width="2px" x1="173.60222686506924" x2="173.0739301589133" y1="390.3919963279733" y2="389.93275500767993"/>
<line stroke="rgba(0, 95, 106, 1)" stroke-width="2px" x1="173.0739301589133" x2="172.55372878107912" y1="389.93275500767993" y2="389.46436358322876"/>
<line stroke="rgba(0, 95, 106, 1)" stroke-width="2px" x1="172.55372878107912" x2="172.04178118994568" y1="389.46436358322876" y2="388.986964731185"/>
<line stroke="rgba(0, 95, 106, 1)" stroke-width="2px" x1="172.04178118994568" x2="171.53824332970865" y1="388.986964731185" y2="388.5007038718637"/>
<line stroke="rgba(0, 95, 106, 1)" stroke-width="2px" x1="171.53824332970865" x2="171.04326858287808" y1="388.5007038718637" y2="388.00572912503316"/>
<line stroke="rgba(0, 95, 106, 1)" stroke-width="2px" x1="171.04326858287808" x2="170.5570077235568" y1="388.00572912503316" y2="387.5021912647961"/>
<line stroke="rgba(0, 95, 106, 1)" stroke-width="2px" x1="170.5570077235568" x2="170.07960887151305" y1="387.5021912647961" y2="386.9902436736627"/>
<line stroke="rgba(0, 95, 106, 1)" stroke-width="2px" x1="170.07960887151305" x2="169.61121744706185" y1="386.9902436736627" y2="386.47004229582853"/>
<line stroke="rgba(0, 95, 106, 1)" stroke-width="2px" x1="169.61121744706185" x2="169.1519761267685" y1="386.47004229582853" y2="385.94174558967256"/>
<line stroke="rgba(0, 95, 106, 1)" stroke-width="2px" x1="169.1519761267685" x2="168.7020247999879" y1="385.94174558967256" y2="385.4055144794893"/>
<line stroke="rgba(0, 95, 106, 1)" stroke-width="2px" x1="168.7020247999879" x2="168.261500526253" y1="385.4055144794893" y2="384.8615123064694"/>
<line stroke="rgba(0, 95, 106, 1)" stroke-width="2px" x1="168.261500526253" x2="167.83053749352504" y1="384.8615123064694" y2="384.3099047789447"/>
<line stroke="rgba(0, 95, 106, 1)" stroke-width="2px" x1="167.83053749352504" x2="167.4092669773186" y1="384.3099047789447" y2="383.7508599219116"/>
<line stroke="rgba(0, 95, 106, 1)" stroke-width="2px" x1="167.4092669773186" x2="166.99781730071385" y1="383.7508599219116" y2="383.18454802584915"/>
<line stroke="rgba(0, 95, 106, 1)" stroke-width="2px" x1="166.99781730071385" x2="166.59631379526812" y1="383.18454802584915" y2="382.61114159484686"/>
<line stroke="rgba(0, 95, 106, 1)" stroke-width="2px" x1="166.59631379526812" x2="166.20487876283855" y1="382.61114159484686" y2="382.03081529405836"/>
<line stroke="rgba(0, 95, 106, 1)" stroke-width="2px" x1="166.20487876283855" x2="165.823631438328" y1="382.03081529405836" y2="381.4437458964966"/>
<line stroke="rgba(0, 95, 106, 1)" stroke-width="2px" x1="165.823631438328" x2="165.45268795336472" y1="381.4437458964966" y2="380.85011222918706"/>
<line stroke="rgba(0, 95, 106, 1)" stroke-width="2px" x1="165.45268795336472" x2="165.09216130092767" y1="380.85011222918706" y2="380.2500951186956"/>
<line stroke="rgba(0, 95, 106, 1)" stroke-width="2px" x1="165.09216130092767" x2="164.74216130092768" y1="380.2500951186956" y2="379.6438773360465"/>
<line stroke="rgba(0, 95, 106, 1)" stroke-width="2px" x1="164.74216130092768" x2="164.40279456675523" y1="379.6438773360465" y2="379.0316435410489"/>
<line stroke="rgba(0, 95, 106, 1)" stroke-width="2px" x1="164.40279456675523" x2="164.0741644728051" y1="379.0316435410489" y2="378.41358022604766"/>
<line stroke="rgba(0, 95, 106, 1)" stroke-width="2px" x1="164.0741644728051" x2="163.75637112298745" y1="378.41358022604766" y2="377.7898756591158"/>
<line stroke="rgba(0, 95, 106, 1)" stroke-width="2px" x1="163.75637112298745" x2="163.44951132023508" y1="377.7898756591158" y2="377.1607198267064"/>
<line stroke="rgba(0, 95, 106, 1)" stroke-width="2px" x1="163.44951132023508" x2="163.1536785370166" y1="377.1607198267064" y2="376.52630437578074"/>
<line stroke="rgba(0, 95, 106, 1)" stroke-width="2px" x1="163.1536785370166" x2="162.86896288686353" y1="376.52630437578074" y2="375.8868225554309"/>
<line stroke="rgba(0, 95, 106, 1)" stroke-width="2px" x1="162.86896288686353" x2="162.59545109692104" y1="375.8868225554309" y2="375.2424691580142"/>
<line stroke="rgba(0, 95, 106, 1)" stroke-width="2px" x1="162.59545109692104" x2="162.3332264815299" y1="375.2424691580142" y2="374.5934404598175"/>
<line stroke="rgba(0, 95, 106, 1)" stroke-width="2px" x1="162.3332264815299" x2="162.08236891684817" y1="374.5934404598175" y2="373.93993416126943"/>
<line stroke="rgba(0, 95, 106, 1)" stroke-width="2px" x1="162.08236891684817" x2="161.8429548165202" y1="373.93993416126943" y2="373.2821493267193"/>
<line stroke="rgba(0, 95, 106, 1)" stroke-width="2px" x1="161.8429548165202" x2="161.61505710840015" y1="373.2821493267193" y2="372.6202863237998"/>
<line stroke="rgba(0, 95, 106, 1)" stroke-width="2px" x1="161.61505710840015" x2="161.39874521233767" y1="372.6202863237998" y2="371.9545467623932"/>
<line stroke="rgba(0, 95, 106, 1)" stroke-width="2px" x1="161.39874521233767" x2="161.19408501903175" y1="371.9545467623932" y2="371.2851334332191"/>
<line stroke="rgba(0, 95, 106, 1)" stroke-width="2px" x1="161.19408501903175" x2="161.00113886995985" y1="371.2851334332191" y2="370.6122502460622"/>
<line stroke="rgba(0, 95, 106, 1)" stroke-width="2px" x1="161.00113886995985" x2="160.8199655383881" y1="370.6122502460622" y2="369.9361021676599"/>
<line stroke="rgba(0, 95, 106, 1)" stroke-width="2px" x1="160.8199655383881" x2="160.65062021146832" y1="369.9361021676599" y2="369.2568951592667"/>
<line stroke="rgba(0, 95, 106, 1)" stroke-width="2px" x1="160.65062021146832" x2="160.4931544734276" y1="369.2568951592667" y2="368.57483611391706"/>
<line stroke="rgba(0, 95, 106, 1)" stroke-width="2px" x1="160.4931544734276" x2="160.3476162898552" y1="368.57483611391706" y2="367.8901327934034"/>
<line stroke="rgba(0, 95, 106, 1)" stroke-width="2px" x1="160.3476162898552" x2="160.2140499930916" y1="367.8901327934034" y2="367.20299376498997"/>
<line stroke="rgba(0, 95, 106, 1)" stroke-width="2px" x1="160.2140499930916" x2="160.09249626872472" y1="367.20299376498997" y2="366.51362833788147"/>
<line stroke="rgba(0, 95, 106, 1)" stroke-width="2px" x1="160.09249626872472" x2="159.98299214319655" y1="366.51362833788147" y2="365.8222464994649"/>
<line stroke="rgba(0, 95, 106, 1)" stroke-width="2px" x1="159.98299214319655" x2="159.8855709725245" y1="365.8222464994649" y2="365.1290588513458"/>
<line stroke="rgba(0, 95, 106, 1)" stroke-width="2px" x1="159.8855709725245" x2="159.8002624321409" y1="365.1290588513458" y2="364.43427654519684"/>
<line stroke="rgba(0, 95, 106, 1)" stroke-width="2px" x1="159.8002624321409" x2="159.7270925078535" y1="364.43427654519684" y2="363.73811121843903"/>
<line stroke="rgba(0, 95, 106, 1)" stroke-width="2px" x1="159.7270925078535" x2="159.66608348793017" y1="363.73811121843903" y2="363.04077492977484"/>
<line stroke="rgba(0, 95, 106, 1)" stroke-width="2px" x1="159.66608348793017" x2="159.61725395630927" y1="363.04077492977484" y2="362.342480094593"/>
<line stroke="rgba(0, 95, 106, 1)" stroke-width="2px" x1="159.61725395630927" x2="159.5806187869392" y1="362.342480094593" y2="361.64343942026477"/>
<line stroke="rgba(0, 95, 106, 1)" stroke-width="2px" x1="159.5806187869392" x2="159.55618913924744" y1="361.64343942026477" y2="360.9438658413514"/>
<line stroke="rgba(0, 95, 106, 1)" stroke-width="2px" x1="159.55618913924744" x2="159.54397245474132" y1="360.9438658413514" y2="360.24397245474194"/>
<line stroke="rgba(0, 95, 106, 1)" stroke-width="2px" x1="159.54397245474132" x2="159.54397245474132" y1="360.24397245474194" y2="359.5439724547419"/>
<line stroke="rgba(0, 95, 106, 1)" stroke-width="2px" x1="159.54397245474132" x2="159.5561891392474" y1="359.5439724547419" y2="358.84407906813243"/>
<line stroke="rgba(0, 95, 106, 1)" stroke-width="2px" x1="159.5561891392474" x2="159.5806187869391" y1="358.84407906813243" y2="358.14450548921906"/>
<line stroke="rgba(0, 95, 106, 1)" stroke-width="2px" x1="159.5806187869391" x2="159.61725395630916" y1="358.14450548921906" y2="357.4454648148909"/>
<line stroke="rgba(0, 95, 106, 1)" stroke-width="2px" x1="159.61725395630916" x2="159.66608348793" y1="357.4454648148909" y2="356.747169979709"/>
<line stroke="rgba(0, 95, 106, 1)" stroke-width="2px" x1="159.66608348793" x2="159.72709250785337" y1="356.747169979709" y2="356.0498336910448"/>
<line stroke="rgba(0, 95, 106, 1)" stroke-width="2px" x1="159.72709250785337" x2="159.80026243214073" y1="356.0498336910448" y2="355.353668364287"/>
<line stroke="rgba(0, 95, 106, 1)" stroke-width="2px" x1="159.80026243214073" x2="159.8855709725243" y1="355.353668364287" y2="354.658886058138"/>
<line stroke="rgba(0, 95, 106, 1)" stroke-width="2px" x1="159.8855709725243" x2="159.98299214319636" y1="354.658886058138" y2="353.96569841001894"/>
<line stroke="rgba(0, 95, 106, 1)" stroke-width="2px" x1="159.98299214319636" x2="160.09249626872452" y1="353.96569841001894" y2="353.27431657160236"/>
<line stroke="rgba(0, 95, 106, 1)" stroke-width="2px" x1="160.09249626872452" x2="160.21404999309135" y1="353.27431657160236" y2="352.5849511444938"/>
<line stroke="rgba(0, 95, 106, 1)" stroke-width="2px" x1="160.21404999309135" x2="160.34761628985493" y1="352.5849511444938" y2="351.89781211608044"/>
<line stroke="rgba(0, 95, 106, 1)" stroke-width="2px" x1="160.34761628985493" x2="160.49315447342735" y1="351.89781211608044" y2="351.21310879556677"/>
<line stroke="rgba(0, 95, 106, 1)" stroke-width="2px" x1="160.49315447342735" x2="160.65062021146804" y1="351.21310879556677" y2="350.5310497502171"/>
<line stroke="rgba(0, 95, 106, 1)" stroke-width="2px" x1="160.65062021146804" x2="160.8199655383878" y1="350.5310497502171" y2="349.85184274182393"/>
<line stroke="rgba(0, 95, 106, 1)" stroke-width="2px" x1="160.8199655383878" x2="161.00113886995956" y1="349.85184274182393" y2="349.17569466342155"/>
<line stroke="rgba(0, 95, 106, 1)" stroke-width="2px" x1="161.00113886995956" x2="161.19408501903143" y1="349.17569466342155" y2="348.50281147626475"/>
<line stroke="rgba(0, 95, 106, 1)" stroke-width="2px" x1="161.19408501903143" x2="161.39874521233733" y1="348.50281147626475" y2="347.83339814709063"/>
<line stroke="rgba(0, 95, 106, 1)" stroke-width="2px" x1="161.39874521233733" x2="161.61505710839975" y1="347.83339814709063" y2="347.16765858568397"/>
<line stroke="rgba(0, 95, 106, 1)" stroke-width="2px" x1="161.61505710839975" x2="161.84295481651975" y1="347.16765858568397" y2="346.50579558276445"/>
<line stroke="rgba(0, 95, 106, 1)" stroke-width="2px" x1="161.84295481651975" x2="162.0823689168477" y1="346.50579558276445" y2="345.84801074821434"/>
<line stroke="rgba(0, 95, 106, 1)" stroke-width="2px" x1="162.0823689168477" x2="162.3332264815294" y1="345.84801074821434" y2="345.1945044496663"/>
<line stroke="rgba(0, 95, 106, 1)" stroke-width="2px" x1="162.3332264815294" x2="162.59545109692053" y1="345.1945044496663" y2="344.54547575146955"/>
<line stroke="rgba(0, 95, 106, 1)" stroke-width="2px" x1="162.59545109692053" x2="162.86896288686305" y1="344.54547575146955" y2="343.9011223540528"/>
<line stroke="rgba(0, 95, 106, 1)" stroke-width="2px" x1="162.86896288686305" x2="163.1536785370161" y1="343.9011223540528" y2="343.26164053370303"/>
<line stroke="rgba(0, 95, 106, 1)" stroke-width="2px" x1="163.1536785370161" x2="163.4495113202346" y1="343.26164053370303" y2="342.62722508277733"/>
<line stroke="rgba(0, 95, 106, 1)" stroke-width="2px" x1="163.4495113202346" x2="163.75637112298693" y1="342.62722508277733" y2="341.9980692503679"/>
<line stroke="rgba(0, 95, 106, 1)" stroke-width="2px" x1="163.75637112298693" x2="164.0741644728046" y1="341.9980692503679" y2="341.37436468343606"/>
<line stroke="rgba(0, 95, 106, 1)" stroke-width="2px" x1="164.0741644728046" x2="164.40279456675472" y1="341.37436468343606" y2="340.75630136843483"/>
<line stroke="rgba(0, 95, 106, 1)" stroke-width="2px" x1="164.40279456675472" x2="164.7421613009271" y1="340.75630136843483" y2="340.1440675734372"/>
<line stroke="rgba(0, 95, 106, 1)" stroke-width="2px" x1="164.7421613009271" x2="165.0921613009271" y1="340.1440675734372" y2="339.53784979078813"/>
<line stroke="rgba(0, 95, 106, 1)" stroke-width="2px" x1="165.0921613009271" x2="165.45268795336412" y1="339.53784979078813" y2="338.93783268029665"/>
<line stroke="rgba(0, 95, 106, 1)" stroke-width="2px" x1="165.45268795336412" x2="165.82363143832737" y1="338.93783268029665" y2="338.34419901298713"/>
<line stroke="rgba(0, 95, 106, 1)" stroke-width="2px" x1="165.82363143832737" x2="166.2048787628379" y1="338.34419901298713" y2="337.75712961542536"/>
<line stroke="rgba(0, 95, 106, 1)" stroke-width="2px" x1="166.2048787628379" x2="166.5963137952674" y1="337.75712961542536" y2="337.1768033146368"/>
<line stroke="rgba(0, 95, 106, 1)" stroke-width="2px" x1="166.5963137952674" x2="166.9978173007131" y1="337.1768033146368" y2="336.6033968836345"/>
<line stroke="rgba(0, 95, 106, 1)" stroke-width="2px" x1="166.9978173007131" x2="167.40926697731783" y1="336.6033968836345" y2="336.03708498757203"/>
<line stroke="rgba(0, 95, 106, 1)" stroke-width="2px" x1="167.40926697731783" x2="167.83053749352425" y1="336.03708498757203" y2="335.47804013053894"/>
<line stroke="rgba(0, 95, 106, 1)" stroke-width="2px" x1="167.83053749352425" x2="168.2615005262522" y1="335.47804013053894" y2="334.92643260301423"/>
<line stroke="rgba(0, 95, 106, 1)" stroke-width="2px" x1="168.2615005262522" x2="168.70202479998707" y1="334.92643260301423" y2="334.3824304299943"/>
<line stroke="rgba(0, 95, 106, 1)" stroke-width="2px" x1="168.70202479998707" x2="169.15197612676764" y1="334.3824304299943" y2="333.84619931981103"/>
<line stroke="rgba(0, 95, 106, 1)" stroke-width="2px" x1="169.15197612676764" x2="169.611217447061" y1="333.84619931981103" y2="333.31790261365506"/>
<line stroke="rgba(0, 95, 106, 1)" stroke-width="2px" x1="169.611217447061" x2="170.0796088715122" y1="333.31790261365506" y2="332.7977012358209"/>
<line stroke="rgba(0, 95, 106, 1)" stroke-width="2px" x1="170.0796088715122" x2="170.55700772355593" y1="332.7977012358209" y2="332.2857536446875"/>
<line stroke="rgba(0, 95, 106, 1)" stroke-width="2px" x1="170.55700772355593" x2="171.04326858287723" y1="332.2857536446875" y2="331.78221578445044"/>
<line stroke="rgba(0, 95, 106, 1)" stroke-width="2px" x1="171.04326858287723" x2="171.5382433297078" y1="331.78221578445044" y2="331.2872410376198"/>
<line stroke="rgba(0, 95, 106, 1)" stroke-width="2px" x1="171.5382433297078" x2="172.04178118994488" y1="331.2872410376198" y2="330.8009801782985"/>
<line stroke="rgba(0, 95, 106, 1)" stroke-width="2px" x1="172.04178118994488" x2="172.5537287810783" y1="330.8009801782985" y2="330.3235813262548"/>
<line stroke="rgba(0, 95, 106, 1)" stroke-width="2px" x1="172.5537287810783" x2="173.07393015891248" y1="330.3235813262548" y2="329.85518990180356"/>
<line stroke="rgba(0, 95, 106, 1)" stroke-width="2px" x1="173.07393015891248" x2="173.6022268650684" y1="329.85518990180356" y2="329.3959485815102"/>
<line stroke="rgba(0, 95, 106, 1)" stroke-width="2px" x1="173.6022268650684" x2="174.13845797525167" y1="329.3959485815102" y2="328.9459972547296"/>
<line stroke="rgba(0, 95, 106, 1)" stroke-width="2px" x1="174.13845797525167" x2="174.68246014827153" y1="328.9459972547296" y2="328.50547298099474"/>
<line stroke="rgba(0, 95, 106, 1)" stroke-width="2px" x1="174.68246014827153" x2="175.23406767579624" y1="328.50547298099474" y2="328.0745099482668"/>
<line stroke="rgba(0, 95, 106, 1)" stroke-width="2px" x1="175.23406767579624" x2="175.79311253282933" y1="328.0745099482668" y2="327.65323943206033"/>
<line stroke="rgba(0, 95, 106, 1)" stroke-width="2px" x1="175.79311253282933" x2="176.35942442889177" y1="327.65323943206033" y2="327.24178975545556"/>
<line stroke="rgba(0, 95, 106, 1)" stroke-width="2px" x1="176.35942442889177" x2="176.93283085989407" y1="327.24178975545556" y2="326.84028625000985"/>
<line stroke="rgba(0, 95, 106, 1)" stroke-width="2px" x1="176.93283085989407" x2="177.5131571606826" y1="326.84028625000985" y2="326.4488512175803"/>
<line stroke="rgba(0, 95, 106, 1)" stroke-width="2px" x1="177.5131571606826" x2="178.1002265582444" y1="326.4488512175803" y2="326.06760389306976"/>
<line stroke="rgba(0, 95, 106, 1)" stroke-width="2px" x1="178.1002265582444" x2="178.6938602255539" y1="326.06760389306976" y2="325.69666040810654"/>
<line stroke="rgba(0, 95, 106, 1)" stroke-width="2px" x1="178.6938602255539" x2="179.29387733604537" y1="325.69666040810654" y2="325.3361337556695"/>
<line stroke="rgba(0, 95, 106, 1)" stroke-width="2px" x1="179.29387733604537" x2="179.90009511869448" y1="325.3361337556695" y2="324.98613375566947"/>
<line stroke="rgba(0, 95, 106, 1)" stroke-width="2px" x1="179.90009511869448" x2="180.51232891369204" y1="324.98613375566947" y2="324.646767021497"/>
<line stroke="rgba(0, 95, 106, 1)" stroke-width="2px" x1="180.51232891369204" x2="181.1303922286933" y1="324.646767021497" y2="324.3181369275469"/>
<line stroke="rgba(0, 95, 106, 1)" stroke-width="2px" x1="181.1303922286933" x2="181.75409679562512" y1="324.3181369275469" y2="324.0003435777292"/>
<line stroke="rgba(0, 95, 106, 1)" stroke-width="2px" x1="181.75409679562512" x2="182.38325262803457" y1="324.0003435777292" y2="323.6934837749768"/>
<line stroke="rgba(0, 95, 106, 1)" stroke-width="2px" x1="182.38325262803457" x2="183.0176680789602" y1="323.6934837749768" y2="323.3976509917583"/>
<line stroke="rgba(0, 95, 106, 1)" stroke-width="2px" x1="183.0176680789602" x2="183.65714989931004" y1="323.3976509917583" y2="323.1129353416053"/>
<line stroke="rgba(0, 95, 106, 1)" stroke-width="2px" x1="183.65714989931004" x2="184.3015032967267" y1="323.1129353416053" y2="322.8394235516628"/>
<line stroke="rgba(0, 95, 106, 1)" stroke-width="2px" x1="184.3015032967267" x2="184.95053199492347" y1="322.8394235516628" y2="322.57719893627166"/>
<line stroke="rgba(0, 95, 106, 1)" stroke-width="2px" x1="184.95053199492347" x2="185.60403829347152" y1="322.57719893627166" y2="322.32634137158993"/>
<line stroke="rgba(0, 95, 106, 1)" stroke-width="2px" x1="185.60403829347152" x2="186.2618231280217" y1="322.32634137158993" y2="322.0869272712619"/>
<line stroke="rgba(0, 95, 106, 1)" stroke-width="2px" x1="186.2618231280217" x2="186.9236861309412" y1="322.0869272712619" y2="321.8590295631419"/>
<line stroke="rgba(0, 95, 106, 1)" stroke-width="2px" x1="186.9236861309412" x2="187.58942569234785" y1="321.8590295631419" y2="321.64271766707947"/>
<line stroke="rgba(0, 95, 106, 1)" stroke-width="2px" x1="187.58942569234785" x2="188.25883902152196" y1="321.64271766707947" y2="321.43805747377354"/>
<line stroke="rgba(0, 95, 106, 1)" stroke-width="2px" x1="188.25883902152196" x2="188.9317222086788" y1="321.43805747377354" y2="321.2451113247016"/>
<line stroke="rgba(0, 95, 106, 1)" stroke-width="2px" x1="188.9317222086788" x2="189.6078702870811" y1="321.2451113247016" y2="321.06393799312985"/>
<line stroke="rgba(0, 95, 106, 1)" stroke-width="2px" x1="189.6078702870811" x2="190.28707729547432" y1="321.06393799312985" y2="320.8945926662101"/>
<line stroke="rgba(0, 95, 106, 1)" stroke-width="2px" x1="190.28707729547432" x2="190.969136340824" y1="320.8945926662101" y2="320.73712692816935"/>
<line stroke="rgba(0, 95, 106, 1)" stroke-width="2px" x1="190.969136340824" x2="191.65383966133768" y1="320.73712692816935" y2="320.5915887445969"/>
<line stroke="rgba(0, 95, 106, 1)" stroke-width="2px" x1="191.65383966133768" x2="192.34097868975104" y1="320.5915887445969" y2="320.45802244783334"/>
<line stroke="rgba(0, 95, 106, 1)" stroke-width="2px" x1="192.34097868975104" x2="193.0303441168596" y1="320.45802244783334" y2="320.33646872346645"/>
<line stroke="rgba(0, 95, 106, 1)" stroke-width="2px" x1="193.0303441168596" x2="193.72172595527616" y1="320.33646872346645" y2="320.22696459793826"/>
<line stroke="rgba(0, 95, 106, 1)" stroke-width="2px" x1="193.72172595527616" x2="194.4149136033953" y1="320.22696459793826" y2="320.12954342726624"/>
<line stroke="rgba(0, 95, 106, 1)" stroke-width="2px" x1="194.4149136033953" x2="195.10969590954423" y1="320.12954342726624" y2="320.04423488688263"/>
<line stroke="rgba(0, 95, 106, 1)" stroke-width="2px" x1="195.10969590954423" x2="195.805861236302" y1="320.04423488688263" y2="319.9710649625953"/>
<line stroke="rgba(0, 95, 106, 1)" stroke-width="2px" x1="195.805861236302" x2="196.50319752496625" y1="319.9710649625953" y2="319.9100559426719"/>
<line stroke="rgba(0, 95, 106, 1)" stroke-width="2px" x1="196.50319752496625" x2="197.20149236014817" y1="319.9100559426719" y2="319.861226411051"/>
<line stroke="rgba(0, 95, 106, 1)" stroke-width="2px" x1="197.20149236014817" x2="197.90053303447635" y1="319.861226411051" y2="319.82459124168093"/>
<line stroke="rgba(0, 95, 106, 1)" stroke-width="2px" x1="197.90053303447635" x2="198.60010661338973" y1="319.82459124168093" y2="319.8001615939892"/>
<line stroke="rgba(0, 95, 106, 1)" stroke-width="2px" x1="198.60010661338973" x2="199.2999999999992" y1="319.8001615939892" y2="319.7879449094831"/>
<line stroke="rgba(0, 95, 106, 1)" stroke-width="2px" x1="199.2999999999992" x2="199.9999999999992" y1="319.7879449094831" y2="319.78794490948303"/>
<line stroke="rgba(0, 95, 106, 1)" stroke-width="2px" x1="199.9999999999992" x2="200.69989338660864" y1="319.78794490948303" y2="319.8001615939892"/>
<line stroke="rgba(0, 95, 106, 1)" stroke-width="2px" x1="200.69989338660864" x2="201.399466965522" y1="319.8001615939892" y2="319.8245912416809"/>
<line stroke="rgba(0, 95, 106, 1)" stroke-width="2px" x1="201.399466965522" x2="202.0985076398502" y1="319.8245912416809" y2="319.86122641105095"/>
<line stroke="rgba(0, 95, 106, 1)" stroke-width="2px" x1="202.0985076398502" x2="202.79680247503208" y1="319.86122641105095" y2="319.9100559426718"/>
<line stroke="rgba(0, 95, 106, 1)" stroke-width="2px" x1="202.79680247503208" x2="203.4941387636963" y1="319.9100559426718" y2="319.97106496259516"/>
<line stroke="rgba(0, 95, 106, 1)" stroke-width="2px" x1="203.4941387636963" x2="204.19030409045408" y1="319.97106496259516" y2="320.0442348868825"/>
<line stroke="rgba(0, 95, 106, 1)" stroke-width="2px" x1="204.19030409045408" x2="204.885086396603" y1="320.0442348868825" y2="320.1295434272661"/>
<line stroke="rgba(0, 95, 106, 1)" stroke-width="2px" x1="204.885086396603" x2="205.5782740447221" y1="320.1295434272661" y2="320.22696459793815"/>
<line stroke="rgba(0, 95, 106, 1)" stroke-width="2px" x1="205.5782740447221" x2="206.26965588313868" y1="320.22696459793815" y2="320.3364687234663"/>
<line stroke="rgba(0, 95, 106, 1)" stroke-width="2px" x1="206.26965588313868" x2="206.95902131024724" y1="320.3364687234663" y2="320.4580224478331"/>
<line stroke="rgba(0, 95, 106, 1)" stroke-width="2px" x1="206.95902131024724" x2="207.6461603386606" y1="320.4580224478331" y2="320.5915887445967"/>
<line stroke="rgba(0, 95, 106, 1)" stroke-width="2px" x1="207.6461603386606" x2="208.33086365917427" y1="320.5915887445967" y2="320.7371269281691"/>
<line stroke="rgba(0, 95, 106, 1)" stroke-width="2px" x1="208.33086365917427" x2="209.01292270452393" y1="320.7371269281691" y2="320.8945926662098"/>
<line stroke="rgba(0, 95, 106, 1)" stroke-width="2px" x1="209.01292270452393" x2="209.6921297129171" y1="320.8945926662098" y2="321.06393799312957"/>
<line stroke="rgba(0, 95, 106, 1)" stroke-width="2px" x1="209.6921297129171" x2="210.36827779131943" y1="321.06393799312957" y2="321.2451113247013"/>
<line stroke="rgba(0, 95, 106, 1)" stroke-width="2px" x1="210.36827779131943" x2="211.04116097847623" y1="321.2451113247013" y2="321.43805747377326"/>
<line stroke="rgba(0, 95, 106, 1)" stroke-width="2px" x1="211.04116097847623" x2="211.71057430765035" y1="321.43805747377326" y2="321.6427176670791"/>
<line stroke="rgba(0, 95, 106, 1)" stroke-width="2px" x1="211.71057430765035" x2="212.37631386905696" y1="321.6427176670791" y2="321.8590295631416"/>
<line stroke="rgba(0, 95, 106, 1)" stroke-width="2px" x1="212.37631386905696" x2="213.03817687197648" y1="321.8590295631416" y2="322.0869272712616"/>
<line stroke="rgba(0, 95, 106, 1)" stroke-width="2px" x1="213.03817687197648" x2="213.69596170652665" y1="322.0869272712616" y2="322.32634137158954"/>
<line stroke="rgba(0, 95, 106, 1)" stroke-width="2px" x1="213.69596170652665" x2="214.3494680050747" y1="322.32634137158954" y2="322.57719893627126"/>
<line stroke="rgba(0, 95, 106, 1)" stroke-width="2px" x1="214.3494680050747" x2="214.99849670327143" y1="322.57719893627126" y2="322.8394235516624"/>
<line stroke="rgba(0, 95, 106, 1)" stroke-width="2px" x1="214.99849670327143" x2="215.64285010068815" y1="322.8394235516624" y2="323.11293534160484"/>
<line stroke="rgba(0, 95, 106, 1)" stroke-width="2px" x1="215.64285010068815" x2="216.282331921038" y1="323.11293534160484" y2="323.3976509917579"/>
<line stroke="rgba(0, 95, 106, 1)" stroke-width="2px" x1="216.282331921038" x2="216.91674737196368" y1="323.3976509917579" y2="323.69348377497636"/>
<line stroke="rgba(0, 95, 106, 1)" stroke-width="2px" x1="216.91674737196368" x2="217.5459032043731" y1="323.69348377497636" y2="324.0003435777287"/>
<line stroke="rgba(0, 95, 106, 1)" stroke-width="2px" x1="217.5459032043731" x2="218.16960777130495" y1="324.0003435777287" y2="324.3181369275464"/>
<line stroke="rgba(0, 95, 106, 1)" stroke-width="2px" x1="218.16960777130495" x2="218.7876710863062" y1="324.3181369275464" y2="324.6467670214965"/>
<line stroke="rgba(0, 95, 106, 1)" stroke-width="2px" x1="218.7876710863062" x2="219.3999048813038" y1="324.6467670214965" y2="324.9861337556689"/>
<line stroke="rgba(0, 95, 106, 1)" stroke-width="2px" x1="219.3999048813038" x2="220.0061226639529" y1="324.9861337556689" y2="325.3361337556689"/>
<line stroke="rgba(0, 95, 106, 1)" stroke-width="2px" x1="220.0061226639529" x2="220.6061397744444" y1="325.3361337556689" y2="325.69666040810597"/>
<line stroke="rgba(0, 95, 106, 1)" stroke-width="2px" x1="220.6061397744444" x2="221.1997734417539" y1="325.69666040810597" y2="326.0676038930692"/>
<line stroke="rgba(0, 95, 106, 1)" stroke-width="2px" x1="221.1997734417539" x2="221.7868428393157" y1="326.0676038930692" y2="326.44885121757966"/>
<line stroke="rgba(0, 95, 106, 1)" stroke-width="2px" x1="221.7868428393157" x2="222.36716914010424" y1="326.44885121757966" y2="326.84028625000917"/>
<line stroke="rgba(0, 95, 106, 1)" stroke-width="2px" x1="222.36716914010424" x2="222.94057557110654" y1="326.84028625000917" y2="327.24178975545493"/>
<line stroke="rgba(0, 95, 106, 1)" stroke-width="2px" x1="222.94057557110654" x2="223.506887467169" y1="327.24178975545493" y2="327.65323943205965"/>
<line stroke="rgba(0, 95, 106, 1)" stroke-width="2px" x1="223.506887467169" x2="224.06593232420212" y1="327.65323943205965" y2="328.07450994826604"/>
<line stroke="rgba(0, 95, 106, 1)" stroke-width="2px" x1="224.06593232420212" x2="224.61753985172683" y1="328.07450994826604" y2="328.505472980994"/>
<line stroke="rgba(0, 95, 106, 1)" stroke-width="2px" x1="224.61753985172683" x2="225.16154202474672" y1="328.505472980994" y2="328.9459972547289"/>
<line stroke="rgba(0, 95, 106, 1)" stroke-width="2px" x1="225.16154202474672" x2="225.69777313493" y1="328.9459972547289" y2="329.39594858150946"/>
<line stroke="rgba(0, 95, 106, 1)" stroke-width="2px" x1="225.69777313493" x2="226.22606984108594" y1="329.39594858150946" y2="329.8551899018028"/>
<line stroke="rgba(0, 95, 106, 1)" stroke-width="2px" x1="226.22606984108594" x2="226.74627121892013" y1="329.8551899018028" y2="330.323581326254"/>
<line stroke="rgba(0, 95, 106, 1)" stroke-width="2px" x1="226.74627121892013" x2="227.25821881005356" y1="330.323581326254" y2="330.8009801782977"/>
<line stroke="rgba(0, 95, 106, 1)" stroke-width="2px" x1="227.25821881005356" x2="227.76175667029062" y1="330.8009801782977" y2="331.287241037619"/>
<line stroke="rgba(0, 95, 106, 1)" stroke-width="2px" x1="227.76175667029062" x2="228.25673141712122" y1="331.287241037619" y2="331.7822157844496"/>
<line stroke="rgba(0, 95, 106, 1)" stroke-width="2px" x1="228.25673141712122" x2="228.74299227644252" y1="331.7822157844496" y2="332.2857536446866"/>
<line stroke="rgba(0, 95, 106, 1)" stroke-width="2px" x1="228.74299227644252" x2="229.22039112848628" y1="332.2857536446866" y2="332.79770123582006"/>
<line stroke="rgba(0, 95, 106, 1)" stroke-width="2px" x1="229.22039112848628" x2="229.68878255293748" y1="332.79770123582006" y2="333.3179026136542"/>
<line stroke="rgba(0, 95, 106, 1)" stroke-width="2px" x1="229.68878255293748" x2="230.14802387323084" y1="333.3179026136542" y2="333.8461993198101"/>
<line stroke="rgba(0, 95, 106, 1)" stroke-width="2px" x1="230.14802387323084" x2="230.59797520001143" y1="333.8461993198101" y2="334.3824304299934"/>
<line stroke="rgba(0, 95, 106, 1)" stroke-width="2px" x1="230.59797520001143" x2="231.03849947374633" y1="334.3824304299934" y2="334.92643260301327"/>
<line stroke="rgba(0, 95, 106, 1)" stroke-width="2px" x1="231.03849947374633" x2="231.4694625064743" y1="334.92643260301327" y2="335.478040130538"/>
<line stroke="rgba(0, 95, 106, 1)" stroke-width="2px" x1="231.4694625064743" x2="231.8907330226807" y1="335.478040130538" y2="336.03708498757106"/>
<line stroke="rgba(0, 95, 106, 1)" stroke-width="2px" x1="231.8907330226807" x2="232.30218269928545" y1="336.03708498757106" y2="336.60339688363354"/>
<line stroke="rgba(0, 95, 106, 1)" stroke-width="2px" x1="232.30218269928545" x2="232.70368620473118" y1="336.60339688363354" y2="337.1768033146358"/>
<line stroke="rgba(0, 95, 106, 1)" stroke-width="2px" x1="232.70368620473118" x2="233.09512123716073" y1="337.1768033146358" y2="337.75712961542433"/>
<line stroke="rgba(0, 95, 106, 1)" stroke-width="2px" x1="233.09512123716073" x2="233.47636856167125" y1="337.75712961542433" y2="338.3441990129861"/>
<line stroke="rgba(0, 95, 106, 1)" stroke-width="2px" x1="233.47636856167125" x2="233.8473120466345" y1="338.3441990129861" y2="338.9378326802956"/>
<line stroke="rgba(0, 95, 106, 1)" stroke-width="2px" x1="233.8473120466345" x2="234.20783869907154" y1="338.9378326802956" y2="339.53784979078705"/>
<line stroke="rgba(0, 95, 106, 1)" stroke-width="2px" x1="234.20783869907154" x2="234.55783869907157" y1="339.53784979078705" y2="340.1440675734362"/>
<line stroke="rgba(0, 95, 106, 1)" stroke-width="2px" x1="234.55783869907157" x2="234.897205433244" y1="340.1440675734362" y2="340.75630136843375"/>
<line stroke="rgba(0, 95, 106, 1)" stroke-width="2px" x1="234.897205433244" x2="235.22583552719414" y1="340.75630136843375" y2="341.374364683435"/>
<line stroke="rgba(0, 95, 106, 1)" stroke-width="2px" x1="235.22583552719414" x2="235.54362887701183" y1="341.374364683435" y2="341.9980692503668"/>
<line stroke="rgba(0, 95, 106, 1)" stroke-width="2px" x1="235.54362887701183" x2="235.8504886797642" y1="341.9980692503668" y2="342.62722508277625"/>
<line stroke="rgba(0, 95, 106, 1)" stroke-width="2px" x1="235.8504886797642" x2="236.1463214629827" y1="342.62722508277625" y2="343.2616405337019"/>
<line stroke="rgba(0, 95, 106, 1)" stroke-width="2px" x1="236.1463214629827" x2="236.4310371131358" y1="343.2616405337019" y2="343.9011223540517"/>
<line stroke="rgba(0, 95, 106, 1)" stroke-width="2px" x1="236.4310371131358" x2="236.70454890307832" y1="343.9011223540517" y2="344.5454757514684"/>
<line stroke="rgba(0, 95, 106, 1)" stroke-width="2px" x1="236.70454890307832" x2="236.96677351846947" y1="344.5454757514684" y2="345.19450444966515"/>
<line stroke="rgba(0, 95, 106, 1)" stroke-width="2px" x1="236.96677351846947" x2="237.2176310831512" y1="345.19450444966515" y2="345.8480107482132"/>
<line stroke="rgba(0, 95, 106, 1)" stroke-width="2px" x1="237.2176310831512" x2="237.45704518347918" y1="345.8480107482132" y2="346.5057955827633"/>
<line stroke="rgba(0, 95, 106, 1)" stroke-width="2px" x1="237.45704518347918" x2="237.6849428915992" y1="346.5057955827633" y2="347.16765858568283"/>
<line stroke="rgba(0, 95, 106, 1)" stroke-width="2px" x1="237.6849428915992" x2="237.90125478766168" y1="347.16765858568283" y2="347.83339814708944"/>
<line stroke="rgba(0, 95, 106, 1)" stroke-width="2px" x1="237.90125478766168" x2="238.1059149809676" y1="347.83339814708944" y2="348.50281147626356"/>
<line stroke="rgba(0, 95, 106, 1)" stroke-width="2px" x1="238.1059149809676" x2="238.29886113003954" y1="348.50281147626356" y2="349.17569466342036"/>
<line stroke="rgba(0, 95, 106, 1)" stroke-width="2px" x1="238.29886113003954" x2="238.48003446161133" y1="349.17569466342036" y2="349.85184274182274"/>
<line stroke="rgba(0, 95, 106, 1)" stroke-width="2px" x1="238.48003446161133" x2="238.64937978853112" y1="349.85184274182274" y2="350.5310497502159"/>
<line stroke="rgba(0, 95, 106, 1)" stroke-width="2px" x1="238.64937978853112" x2="238.80684552657183" y1="350.5310497502159" y2="351.2131087955656"/>
<line stroke="rgba(0, 95, 106, 1)" stroke-width="2px" x1="238.80684552657183" x2="238.9523837101443" y1="351.2131087955656" y2="351.89781211607925"/>
<line stroke="rgba(0, 95, 106, 1)" stroke-width="2px" x1="238.9523837101443" x2="239.0859500069079" y1="351.89781211607925" y2="352.5849511444926"/>
<line stroke="rgba(0, 95, 106, 1)" stroke-width="2px" x1="239.0859500069079" x2="239.20750373127476" y1="352.5849511444926" y2="353.27431657160116"/>
<line stroke="rgba(0, 95, 106, 1)" stroke-width="2px" x1="239.20750373127476" x2="239.31700785680297" y1="353.27431657160116" y2="353.96569841001775"/>
<line stroke="rgba(0, 95, 106, 1)" stroke-width="2px" x1="239.31700785680297" x2="239.41442902747505" y1="353.96569841001775" y2="354.65888605813683"/>
<line stroke="rgba(0, 95, 106, 1)" stroke-width="2px" x1="239.41442902747505" x2="239.4997375678587" y1="354.65888605813683" y2="355.35366836428574"/>
<line stroke="rgba(0, 95, 106, 1)" stroke-width="2px" x1="239.4997375678587" x2="239.57290749214607" y1="355.35366836428574" y2="356.04983369104355"/>
<line stroke="rgba(0, 95, 106, 1)" stroke-width="2px" x1="239.57290749214607" x2="239.63391651206945" y1="356.04983369104355" y2="356.7471699797078"/>
<line stroke="rgba(0, 95, 106, 1)" stroke-width="2px" x1="239.63391651206945" x2="239.68274604369034" y1="356.7471699797078" y2="357.44546481488965"/>
<line stroke="rgba(0, 95, 106, 1)" stroke-width="2px" x1="239.68274604369034" x2="239.71938121306042" y1="357.44546481488965" y2="358.14450548921786"/>
<line stroke="rgba(0, 95, 106, 1)" stroke-width="2px" x1="239.71938121306042" x2="239.74381086075218" y1="358.14450548921786" y2="358.84407906813124"/>
<line stroke="rgba(0, 95, 106, 1)" stroke-width="2px" x1="239.74381086075218" x2="239.7560275452583" y1="358.84407906813124" y2="359.5439724547407"/>
<line stroke="rgba(0, 95, 106, 1)" stroke-width="2px" x1="239.7560275452583" x2="189.7560275452583" y1="359.5439724547407" y2="359.5439724547422"/>
<line stroke="rgba(0, 95, 106, 1)" stroke-width="2px" x1="289.7560275452583" x2="289.7560275452553" y1="359.54397245473916" y2="259.54397245473916"/>
</svg>