<svg viewBox="0 0 800 600" xmlns="http://www.w3.org/2000/svg">
<rect fill="rgba(177, 210, 123, 1)" height="100%" width="100%"/>
<line stroke="rgba(0, 95, 106, 1)" stroke-width="2px" x1="100" x2="100" y1="400" y2="200"/>
<line stroke="rgba(0, 95, 106, 1)" stroke-width="2px" x1="100" x2="100" y1="200" y2="300"/>
<line stroke="rgba(0, 95, 106, 1)" stroke-width="2px" x1="100" x2="150" y1="300" y2="300"/>
<line stroke="rgba(0, 95, 106, 1)" stroke-width="2px" x1="150" x2="150" y1="300" y2="200"/>
<line stroke="rgba(0, 95, 106, 1)" stroke-width="2px" x1="150" x2="150" y1="200" y2="400"/>
<line stroke="rgba(0, 95, 106, 1)" stroke-width="2px" x1="250" x2="249.3" y1="400" y2="400"/>
<line stroke="rgba(0, 95, 106, 1)" stroke-width="2px" x1="249.3" x2="248.60010661339055" y1="400" y2="399.9877833154939"/>
<line stroke="rgba(0, 95, 106, 1)" stroke-width="2px" x1="248.60010661339055" x2="247.90053303447718" y1="399.9877833154939" y2="399.96335366780215"/>
<line stroke="rgba(0, 95, 106, 1)" stroke-width="2px" x1="247.90053303447718" x2="247.201492360149" y1="399.96335366780215" y2="399.92671849843214"/>
<line stroke="rgba(0, 95, 106, 1)" stroke-width="2px" x1="247.201492360149" x2="246.5031975249671" y1="399.92671849843214" y2="399.87788896681127"/>
<line stroke="rgba(0, 95, 106, 1)" stroke-width="2px" x1="246.5031975249671" x2="245.8058612363029" y1="399.87788896681127" y2="399.81687994688787"/>
<line stroke="rgba(0, 95, 106, 1)" stroke-width="2px" x1="245.8058612363029" x2="245.1096959095451" y1="399.81687994688787" y2="399.7437100226005"/>
<line stroke="rgba(0, 95, 106, 1)" stroke-width="2px" x1="245.1096959095451" x2="244.41491360339617" y1="399.7437100226005" y2="399.6584014822169"/>
<line stroke="rgba(0, 95, 106, 1)" stroke-width="2px" x1="244.41491360339617" x2="243.7217259552771" y1="399.6584014822169" y2="399.5609803115449"/>
<line stroke="rgba(0, 95, 106, 1)" stroke-width="2px" x1="243.7217259552771" x2="243.0303441168605" y1="399.5609803115449" y2="399.45147618601675"/>
<line stroke="rgba(0, 95, 106, 1)" stroke-width="2px" x1="243.0303441168605" x2="242.34097868975195" y1="399.45147618601675" y2="399.32992246164986"/>
<line stroke="rgba(0, 95, 106, 1)" stroke-width="2px" x1="242.34097868975195" x2="241.6538396613386" y1="399.32992246164986" y2="399.1963561648863"/>
<line stroke="rgba(0, 95, 106, 1)" stroke-width="2px" x1="241.6538396613386" x2="240.96913634082492" y1="399.1963561648863" y2="399.0508179813139"/>
<line stroke="rgba(0, 95, 106, 1)" stroke-width="2px" x1="240.96913634082492" x2="240.28707729547526" y1="399.0508179813139" y2="398.89335224327317"/>
<line stroke="rgba(0, 95, 106, 1)" stroke-width="2px" x1="240.28707729547526" x2="239.60787028708205" y1="398.89335224327317" y2="398.72400691635346"/>
<line stroke="rgba(0, 95, 106, 1)" stroke-width="2px" x1="239.60787028708205" x2="238.9317222086797" y1="398.72400691635346" y2="398.54283358478165"/>
<line stroke="rgba(0, 95, 106, 1)" stroke-width="2px" x1="238.9317222086797" x2="238.25883902152287" y1="398.54283358478165" y2="398.3498874357098"/>
<line stroke="rgba(0, 95, 106, 1)" stroke-width="2px" x1="238.25883902152287" x2="237.58942569234875" y1="398.3498874357098" y2="398.14522724240385"/>
<line stroke="rgba(0, 95, 106, 1)" stroke-width="2px" x1="237.58942569234875" x2="236.92368613094214" y1="398.14522724240385" y2="397.92891534634134"/>
<line stroke="rgba(0, 95, 106, 1)" stroke-width="2px" x1="236.92368613094214" x2="236.26182312802263" y1="397.92891534634134" y2="397.70101763822134"/>
<line stroke="rgba(0, 95, 106, 1)" stroke-width="2px" x1="236.26182312802263" x2="235.60403829347248" y1="397.70101763822134" y2="397.4616035378934"/>
<line stroke="rgba(0, 95, 106, 1)" stroke-width="2px" x1="235.60403829347248" x2="234.95053199492443" y1="397.4616035378934" y2="397.2107459732117"/>
<line stroke="rgba(0, 95, 106, 1)" stroke-width="2px" x1="234.95053199492443" x2="234.30150329672767" y1="397.2107459732117" y2="396.94852135782054"/>
<line stroke="rgba(0, 95, 106, 1)" stroke-width="2px" x1="234.30150329672767" x2="233.65714989931095" y1="396.94852135782054" y2="396.6750095678781"/>
<line stroke="rgba(0, 95, 106, 1)" stroke-width="2px" x1="233.65714989931095" x2="233.01766807896112" y1="396.6750095678781" y2="396.390293917725"/>
<line stroke="rgba(0, 95, 106, 1)" stroke-width="2px" x1="233.01766807896112" x2="232.38325262803548" y1="396.390293917725" y2="396.0944611345065"/>
<line stroke="rgba(0, 95, 106, 1)" stroke-width="2px" x1="232.38325262803548" x2="231.75409679562603" y1="396.0944611345065" y2="395.78760133175416"/>
<line stroke="rgba(0, 95, 106, 1)" stroke-width="2px" x1="231.75409679562603" x2="231.13039222869418" y1="395.78760133175416" y2="395.46980798193647"/>
<line stroke="rgba(0, 95, 106, 1)" stroke-width="2px" x1="231.13039222869418" x2="230.51232891369293" y1="395.46980798193647" y2="395.1411778879864"/>
<line stroke="rgba(0, 95, 106, 1)" stroke-width="2px" x1="230.51232891369293" x2="229.90009511869533" y1="395.1411778879864" y2="394.8018111538139"/>
<line stroke="rgba(0, 95, 106, 1)" stroke-width="2px" x1="229.90009511869533" x2="229.29387733604622" y1="394.8018111538139" y2="394.45181115381394"/>
<line stroke="rgba(0, 95, 106, 1)" stroke-width="2px" x1="229.29387733604622" x2="228.69386022555474" y1="394.45181115381394" y2="394.0912845013769"/>
<line stroke="rgba(0, 95, 106, 1)" stroke-width="2px" x1="228.69386022555474" x2="228.10022655824525" y1="394.0912845013769" y2="393.7203410164136"/>
<line stroke="rgba(0, 95, 106, 1)" stroke-width="2px" x1="228.10022655824525" x2="227.51315716068345" y1="393.7203410164136" y2="393.33909369190314"/>
<line stroke="rgba(0, 95, 106, 1)" stroke-width="2px" x1="227.51315716068345" x2="226.93283085989492" y1="393.33909369190314" y2="392.94765865947363"/>
<line stroke="rgba(0, 95, 106, 1)" stroke-width="2px" x1="226.93283085989492" x2="226.35942442889262" y1="392.94765865947363" y2="392.5461551540279"/>
<line stroke="rgba(0, 95, 106, 1)" stroke-width="2px" x1="226.35942442889262" x2="225.79311253283015" y1="392.5461551540279" y2="392.13470547742315"/>
<line stroke="rgba(0, 95, 106, 1)" stroke-width="2px" x1="225.79311253283015" x2="225.23406767579704" y1="392.13470547742315" y2="391.7134349612167"/>
<line stroke="rgba(0, 95, 106, 1)" stroke-width="2px" x1="225.23406767579704" x2="224.68246014827233" y1="391.7134349612167" y2="391.28247192848875"/>
<line stroke="rgba(0, 95, 106, 1)" stroke-width="2px" x1="224.68246014827233" x2="224.13845797525244" y1="391.28247192848875" y2="390.8419476547539"/>
<line stroke="rgba(0, 95, 106, 1)" stroke-width="2px" x1="224.13845797525244" x2="223.60222686506916" y1="390.8419476547539" y2="390.3919963279733"/>
<line stroke="rgba(0, 95, 106, 1)" stroke-width="2px" x1="223.60222686506916" x2="223.0739301589132" y1="390.3919963279733" y2="389.93275500767993"/>
<line stroke="rgba(0, 95, 106, 1)" stroke-width="2px" x1="223.0739301589132" x2="222.55372878107903" y1="389.93275500767993" y2="389.46436358322876"/>
<line stroke="rgba(0, 95, 106, 1)" stroke-width="2px" x1="222.55372878107903" x2="222.0417811899456" y1="389.46436358322876" y2="388.986964731185"/>
<line stroke="rgba(0, 95, 106, 1)" stroke-width="2px" x1="222.0417811899456" x2="221.53824332970854" y1="388.986964731185" y2="388.5007038718637"/>
<line stroke="rgba(0, 95, 106, 1)" stroke-width="2px" x1="221.53824332970854" x2="221.04326858287794" y1="388.5007038718637" y2="388.00572912503316"/>
<line stroke="rgba(0, 95, 106, 1)" stroke-width="2px" x1="221.04326858287794" x2="220.55700772355664" y1="388.00572912503316" y2="387.5021912647961"/>
<line stroke="rgba(0, 95, 106, 1)" stroke-width="2px" x1="220.55700772355664" x2="220.07960887151287" y1="387.5021912647961" y2="386.9902436736627"/>
<line stroke="rgba(0, 95, 106, 1)" stroke-width="2px" x1="220.07960887151287" x2="219.61121744706168" y1="386.9902436736627" y2="386.47004229582853"/>
<line stroke="rgba(0, 95, 106, 1)" stroke-width="2px" x1="219.61121744706168" x2="219.15197612676832" y1="386.47004229582853" y2="385.94174558967256"/>
<line stroke="rgba(0, 95, 106, 1)" stroke-width="2px" x1="219.15197612676832" x2="218.70202479998773" y1="385.94174558967256" y2="385.4055144794893"/>
<line stroke="rgba(0, 95, 106, 1)" stroke-width="2px" x1="218.70202479998773" x2="218.26150052625283" y1="385.4055144794893" y2="384.8615123064694"/>
<line stroke="rgba(0, 95, 106, 1)" stroke-width="2px" x1="218.26150052625283" x2="217.83053749352487" y1="384.8615123064694" y2="384.3099047789447"/>
<line stroke="rgba(0, 95, 106, 1)" stroke-width="2px" x1="217.83053749352487" x2="217.4092669773184" y1="384.3099047789447" y2="383.7508599219116"/>
<line stroke="rgba(0, 95, 106, 1)" stroke-width="2px" x1="217.4092669773184" x2="216.99781730071365" y1="383.7508599219116" y2="383.18454802584915"/>
<line stroke="rgba(0, 95, 106, 1)" stroke-width="2px" x1="216.99781730071365" x2="216.59631379526792" y1="383.18454802584915" y2="382.61114159484686"/>
<line stroke="rgba(0, 95, 106, 1)" stroke-width="2px" x1="216.59631379526792" x2="216.2048787628384" y1="382.61114159484686" y2="382.03081529405836"/>
<line stroke="rgba(0, 95, 106, 1)" stroke-width="2px" x1="216.2048787628384" x2="215.82363143832788" y1="382.03081529405836" y2="381.4437458964966"/>
<line stroke="rgba(0, 95, 106, 1)" stroke-width="2px" x1="215.82363143832788" x2="215.45268795336463" y1="381.4437458964966" y2="380.85011222918706"/>
<line stroke="rgba(0, 95, 106, 1)" stroke-width="2px" x1="215.45268795336463" x2="215.0921613009276" y1="380.85011222918706" y2="380.2500951186956"/>
<line stroke="rgba(0, 95, 106, 1)" stroke-width="2px" x1="215.0921613009276" x2="214.7421613009276" y1="380.2500951186956" y2="379.6438773360465"/>
<line stroke="rgba(0, 95, 106, 1)" stroke-width="2px" x1="214.7421613009276" x2="214.40279456675515" y1="379.6438773360465" y2="379.0316435410489"/>
<line stroke="rgba(0, 95, 106, 1)" stroke-width="2px" x1="214.40279456675515" x2="214.07416447280505" y1="379.0316435410489" y2="378.41358022604766"/>
<line stroke="rgba(0, 95, 106, 1)" stroke-width="2px" x1="214.07416447280505" x2="213.75637112298736" y1="378.41358022604766" y2="377.7898756591158"/>
<line stroke="rgba(0, 95, 106, 1)" stroke-width="2px" x1="213.75637112298736" x2="213.449511320235" y1="377.7898756591158" y2="377.1607198267064"/>
<line stroke="rgba(0, 95, 106, 1)" stroke-width="2px" x1="213.449511320235" x2="213.1536785370165" y1="377.1607198267064" y2="376.52630437578074"/>
<line stroke="rgba(0, 95, 106, 1)" stroke-width="2px" x1="213.1536785370165" x2="212.86896288686344" y1="376.52630437578074" y2="375.8868225554309"/>
<line stroke="rgba(0, 95, 106, 1)" stroke-width="2px" x1="212.86896288686344" x2="212.59545109692095" y1="375.8868225554309" y2="375.2424691580142"/>
<line stroke="rgba(0, 95, 106, 1)" stroke-width="2px" x1="212.59545109692095" x2="212.3332264815298" y1="375.2424691580142" y2="374.5934404598175"/>
<line stroke="rgba(0, 95, 106, 1)" stroke-width="2px" x1="212.3332264815298" x2="212.08236891684808" y1="374.5934404598175" y2="373.93993416126943"/>
<line stroke="rgba(0, 95, 106, 1)" stroke-width="2px" x1="212.08236891684808" x2="211.84295481652012" y1="373.93993416126943" y2="373.2821493267193"/>
<line stroke="rgba(0, 95, 106, 1)" stroke-width="2px" x1="211.84295481652012" x2="211.6150571084001" y1="373.2821493267193" y2="372.6202863237998"/>
<line stroke="rgba(0, 95, 106, 1)" stroke-width="2px" x1="211.6150571084001" x2="211.3987452123376" y1="372.6202863237998" y2="371.9545467623932"/>
<line stroke="rgba(0, 95, 106, 1)" stroke-width="2px" x1="211.3987452123376" x2="211.1940850190317" y1="371.9545467623932" y2="371.2851334332191"/>
<line stroke="rgba(0, 95, 106, 1)" stroke-width="2px" x1="211.1940850190317" x2="211.0011388699598" y1="371.2851334332191" y2="370.6122502460622"/>
<line stroke="rgba(0, 95, 106, 1)" stroke-width="2px" x1="211.0011388699598" x2="210.819965538388" y1="370.6122502460622" y2="369.9361021676599"/>
<line stroke="rgba(0, 95, 106, 1)" stroke-width="2px" x1="210.819965538388" x2="210.65062021146824" y1="369.9361021676599" y2="369.2568951592667"/>
<line stroke="rgba(0, 95, 106, 1)" stroke-width="2px" x1="210.65062021146824" x2="210.49315447342752" y1="369.2568951592667" y2="368.57483611391706"/>
<line stroke="rgba(0, 95, 106, 1)" stroke-width="2px" x1="210.49315447342752" x2="210.3476162898551" y1="368.57483611391706" y2="367.8901327934034"/>
<line stroke="rgba(0, 95, 106, 1)" stroke-width="2px" x1="210.3476162898551" x2="210.2140499930915" y1="367.8901327934034" y2="367.20299376498997"/>
<line stroke="rgba(0, 95, 106, 1)" stroke-width="2px" x1="210.2140499930915" x2="210.09249626872463" y1="367.20299376498997" y2="366.51362833788147"/>
<line stroke="rgba(0, 95, 106, 1)" stroke-width="2px" x1="210.09249626872463" x2="209.98299214319647" y1="366.51362833788147" y2="365.8222464994649"/>
<line stroke="rgba(0, 95, 106, 1)" stroke-width="2px" x1="209.98299214319647" x2="209.8855709725244" y1="365.8222464994649" y2="365.1290588513458"/>
<line stroke="rgba(0, 95, 106, 1)" stroke-width="2px" x1="209.8855709725244" x2="209.8002624321408" y1="365.1290588513458" y2="364.43427654519684"/>
<line stroke="rgba(0, 95, 106, 1)" stroke-width="2px" x1="209.8002624321408" x2="209.72709250785343" y1="364.43427654519684" y2="363.73811121843903"/>
<line stroke="rgba(0, 95, 106, 1)" stroke-width="2px" x1="209.72709250785343" x2="209.66608348793005" y1="363.73811121843903" y2="363.04077492977484"/>
<line stroke="rgba(0, 95, 106, 1)" stroke-width="2px" x1="209.66608348793005" x2="209.61725395630916" y1="363.04077492977484" y2="362.342480094593"/>
<line stroke="rgba(0, 95, 106, 1)" stroke-width="2px" x1="209.61725395630916" x2="209.58061878693908" y1="362.342480094593" y2="361.64343942026477"/>
<line stroke="rgba(0, 95, 106, 1)" stroke-width="2px" x1="209.58061878693908" x2="209.55618913924732" y1="361.64343942026477" y2="360.9438658413514"/>
<line stroke="rgba(0, 95, 106, 1)" stroke-width="2px" x1="209.55618913924732" x2="209.5439724547412" y1="360.9438658413514" y2="360.24397245474194"/>
<line stroke="rgba(0, 95, 106, 1)" stroke-width="2px" x1="209.5439724547412" x2="209.5439724547412" y1="360.24397245474194" y2="359.5439724547419"/>
<line stroke="rgba(0, 95, 106, 1)" stroke-width="2px" x1="209.5439724547412" x2="209.5561891392473" y1="359.5439724547419" y2="358.84407906813243"/>
<line stroke="rgba(0, 95, 106, 1)" stroke-width="2px" x1="209.5561891392473" x2="209.58061878693903" y1="358.84407906813243" y2="358.14450548921906"/>
<line stroke="rgba(0, 95, 106, 1)" stroke-width="2px" x1="209.58061878693903" x2="209.61725395630907" y1="358.14450548921906" y2="357.4454648148909"/>
<line stroke="rgba(0, 95, 106, 1)" stroke-width="2px" x1="209.61725395630907" x2="209.6660834879299" y1="357.4454648148909" y2="356.747169979709"/>
<line stroke="rgba(0, 95, 106, 1)" stroke-width="2px" x1="209.6660834879299" x2="209.72709250785329" y1="356.747169979709" y2="356.0498336910448"/>
<line stroke="rgba(0, 95, 106, 1)" stroke-width="2px" x1="209.72709250785329" x2="209.80026243214064" y1="356.0498336910448" y2="355.353668364287"/>
<line stroke="rgba(0, 95, 106, 1)" stroke-width="2px" x1="209.80026243214064" x2="209.88557097252425" y1="355.353668364287" y2="354.658886058138"/>
<line stroke="rgba(0, 95, 106, 1)" stroke-width="2px" x1="209.88557097252425" x2="209.9829921431963" y1="354.658886058138" y2="353.96569841001894"/>
<line stroke="rgba(0, 95, 106, 1)" stroke-width="2px" x1="209.9829921431963" x2="210.0924962687245" y1="353.96569841001894" y2="353.27431657160236"/>
<line stroke="rgba(0, 95, 106, 1)" stroke-width="2px" x1="210.0924962687245" x2="210.21404999309132" y1="353.27431657160236" y2="352.5849511444938"/>
<line stroke="rgba(0, 95, 106, 1)" stroke-width="2px" x1="210.21404999309132" x2="210.3476162898549" y1="352.5849511444938" y2="351.89781211608044"/>
<line stroke="rgba(0, 95, 106, 1)" stroke-width="2px" x1="210.3476162898549" x2="210.49315447342732" y1="351.89781211608044" y2="351.21310879556677"/>
<line stroke="rgba(0, 95, 106, 1)" stroke-width="2px" x1="210.49315447342732" x2="210.650620211468" y1="351.21310879556677" y2="350.5310497502171"/>
<line stroke="rgba(0, 95, 106, 1)" stroke-width="2px" x1="210.650620211468" x2="210.81996553838775" y1="350.5310497502171" y2="349.85184274182393"/>
<line stroke="rgba(0, 95, 106, 1)" stroke-width="2px" x1="210.81996553838775" x2="211.0011388699595" y1="349.85184274182393" y2="349.17569466342155"/>
<line stroke="rgba(0, 95, 106, 1)" stroke-width="2px" x1="211.0011388699595" x2="211.1940850190314" y1="349.17569466342155" y2="348.50281147626475"/>
<line stroke="rgba(0, 95, 106, 1)" stroke-width="2px" x1="211.1940850190314" x2="211.3987452123373" y1="348.50281147626475" y2="347.83339814709063"/>
<line stroke="rgba(0, 95, 106, 1)" stroke-width="2px" x1="211.3987452123373" x2="211.61505710839975" y1="347.83339814709063" y2="347.16765858568397"/>
<line stroke="rgba(0, 95, 106, 1)" stroke-width="2px" x1="211.61505710839975" x2="211.84295481651975" y1="347.16765858568397" y2="346.50579558276445"/>
<line stroke="rgba(0, 95, 106, 1)" stroke-width="2px" x1="211.84295481651975" x2="212.0823689168477" y1="346.50579558276445" y2="345.84801074821434"/>
<line stroke="rgba(0, 95, 106, 1)" stroke-width="2px" x1="212.0823689168477" x2="212.3332264815294" y1="345.84801074821434" y2="345.1945044496663"/>
<line stroke="rgba(0, 95, 106, 1)" stroke-width="2px" x1="212.3332264815294" x2="212.59545109692053" y1="345.1945044496663" y2="344.54547575146955"/>
<line stroke="rgba(0, 95, 106, 1)" stroke-width="2px" x1="212.59545109692053" x2="212.86896288686305" y1="344.54547575146955" y2="343.9011223540528"/>
<line stroke="rgba(0, 95, 106, 1)" stroke-width="2px" x1="212.86896288686305" x2="213.1536785370161" y1="343.9011223540528" y2="343.26164053370303"/>
<line stroke="rgba(0, 95, 106, 1)" stroke-width="2px" x1="213.1536785370161" x2="213.4495113202346" y1="343.26164053370303" y2="342.62722508277733"/>
<line stroke="rgba(0, 95, 106, 1)" stroke-width="2px" x1="213.4495113202346" x2="213.75637112298693" y1="342.62722508277733" y2="341.9980692503679"/>
<line stroke="rgba(0, 95, 106, 1)" stroke-width="2px" x1="213.75637112298693" x2="214.0741644728046" y1="341.9980692503679" y2="341.37436468343606"/>
<line stroke="rgba(0, 95, 106, 1)" stroke-width="2px" x1="214.0741644728046" x2="214.40279456675472" y1="341.37436468343606" y2="340.75630136843483"/>
<line stroke="rgba(0, 95, 106, 1)" stroke-width="2px" x1="214.40279456675472" x2="214.7421613009271" y1="340.75630136843483" y2="340.1440675734372"/>
<line stroke="rgba(0, 95, 106, 1)" stroke-width="2px" x1="214.7421613009271" x2="215.0921613009271" y1="340.1440675734372" y2="339.53784979078813"/>
<line stroke="rgba(0, 95, 106, 1)" stroke-width="2px" x1="215.0921613009271" x2="215.45268795336412" y1="339.53784979078813" y2="338.93783268029665"/>
<line stroke="rgba(0, 95, 106, 1)" stroke-width="2px" x1="215.45268795336412" x2="215.82363143832737" y1="338.93783268029665" y2="338.34419901298713"/>
<line stroke="rgba(0, 95, 106, 1)" stroke-width="2px" x1="215.82363143832737" x2="216.2048787628379" y1="338.34419901298713" y2="337.75712961542536"/>
<line stroke="rgba(0, 95, 106, 1)" stroke-width="2px" x1="216.2048787628379" x2="216.5963137952674" y1="337.75712961542536" y2="337.1768033146368"/>
<line stroke="rgba(0, 95, 106, 1)" stroke-width="2px" x1="216.5963137952674" x2="216.9978173007131" y1="337.1768033146368" y2="336.6033968836345"/>
<line stroke="rgba(0, 95, 106, 1)" stroke-width="2px" x1="216.9978173007131" x2="217.40926697731783" y1="336.6033968836345" y2="336.03708498757203"/>
<line stroke="rgba(0, 95, 106, 1)" stroke-width="2px" x1="217.40926697731783" x2="217.83053749352425" y1="336.03708498757203" y2="335.47804013053894"/>
<line stroke="rgba(0, 95, 106, 1)" stroke-width="2px" x1="217.83053749352425" x2="218.2615005262522" y1="335.47804013053894" y2="334.92643260301423"/>
<line stroke="rgba(0, 95, 106, 1)" stroke-width="2px" x1="218.2615005262522" x2="218.70202479998707" y1="334.92643260301423" y2="334.3824304299943"/>
<line stroke="rgba(0, 95, 106, 1)" stroke-width="2px" x1="218.70202479998707" x2="219.15197612676764" y1="334.3824304299943" y2="333.84619931981103"/>
<line stroke="rgba(0, 95, 106, 1)" stroke-width="2px" x1="219.15197612676764" x2="219.611217447061" y1="333.84619931981103" y2="333.31790261365506"/>
<line stroke="rgba(0, 95, 106, 1)" stroke-width="2px" x1="219.611217447061" x2="220.0796088715122" y1="333.31790261365506" y2="332.7977012358209"/>
<line stroke="rgba(0, 95, 106, 1)" stroke-width="2px" x1="220.0796088715122" x2="220.55700772355593" y1="332.7977012358209" y2="332.2857536446875"/>
<line stroke="rgba(0, 95, 106, 1)" stroke-width="2px" x1="220.55700772355593" x2="221.04326858287723" y1="332.2857536446875" y2="331.78221578445044"/>
<line stroke="rgba(0, 95, 106, 1)" stroke-width="2px" x1="221.04326858287723" x2="221.5382433297078" y1="331.78221578445044" y2="331.2872410376198"/>
<line stroke="rgba(0, 95, 106, 1)" stroke-width="2px" x1="221.5382433297078" x2="222.04178118994486" y1="331.2872410376198" y2="330.8009801782985"/>
<line stroke="rgba(0, 95, 106, 1)" stroke-width="2px" x1="222.04178118994486" x2="222.55372878107826" y1="330.8009801782985" y2="330.3235813262548"/>
<line stroke="rgba(0, 95, 106, 1)" stroke-width="2px" x1="222.55372878107826" x2="223.07393015891245" y1="330.3235813262548" y2="329.85518990180356"/>
<line stroke="rgba(0, 95, 106, 1)" stroke-width="2px" x1="223.07393015891245" x2="223.6022268650684" y1="329.85518990180356" y2="329.3959485815102"/>
<line stroke="rgba(0, 95, 106, 1)" stroke-width="2px" x1="223.6022268650684" x2="224.13845797525167" y1="329.3959485815102" y2="328.9459972547296"/>
<line stroke="rgba(0, 95, 106, 1)" stroke-width="2px" x1="224.13845797525167" x2="224.68246014827153" y1="328.9459972547296" y2="328.50547298099474"/>
<line stroke="rgba(0, 95, 106, 1)" stroke-width="2px" x1="224.68246014827153" x2="225.23406767579624" y1="328.50547298099474" y2="328.0745099482668"/>
<line stroke="rgba(0, 95, 106, 1)" stroke-width="2px" x1="225.23406767579624" x2="225.79311253282933" y1="328.0745099482668" y2="327.65323943206033"/>
<line stroke="rgba(0, 95, 106, 1)" stroke-width="2px" x1="225.79311253282933" x2="226.35942442889177" y1="327.65323943206033" y2="327.24178975545556"/>
<line stroke="rgba(0, 95, 106, 1)" stroke-width="2px" x1="226.35942442889177" x2="226.93283085989407" y1="327.24178975545556" y2="326.84028625000985"/>
<line stroke="rgba(0, 95, 106, 1)" stroke-width="2px" x1="226.93283085989407" x2="227.5131571606826" y1="326.84028625000985" y2="326.4488512175803"/>
<line stroke="rgba(0, 95, 106, 1)" stroke-width="2px" x1="227.5131571606826" x2="228.1002265582444" y1="326.4488512175803" y2="326.06760389306976"/>
<line stroke="rgba(0, 95, 106, 1)" stroke-width="2px" x1="228.1002265582444" x2="228.6938602255539" y1="326.06760389306976" y2="325.69666040810654"/>
<line stroke="rgba(0, 95, 106, 1)" stroke-width="2px" x1="228.6938602255539" x2="229.29387733604537" y1="325.69666040810654" y2="325.3361337556695"/>
<line stroke="rgba(0, 95, 106, 1)" stroke-width="2px" x1="229.29387733604537" x2="229.90009511869448" y1="325.3361337556695" y2="324.98613375566947"/>
<line stroke="rgba(0, 95, 106, 1)" stroke-width="2px" x1="229.90009511869448" x2="230.51232891369204" y1="324.98613375566947" y2="324.646767021497"/>
<line stroke="rgba(0, 95, 106, 1)" stroke-width="2px" x1="230.51232891369204" x2="231.1303922286933" y1="324.646767021497" y2="324.3181369275469"/>
<line stroke="rgba(0, 95, 106, 1)" stroke-width="2px" x1="231.1303922286933" x2="231.75409679562514" y1="324.3181369275469" y2="324.0003435777292"/>
<line stroke="rgba(0, 95, 106, 1)" stroke-width="2px" x1="231.75409679562514" x2="232.38325262803457" y1="324.0003435777292" y2="323.6934837749768"/>
<line stroke="rgba(0, 95, 106, 1)" stroke-width="2px" x1="232.38325262803457" x2="233.0176680789602" y1="323.6934837749768" y2="323.3976509917583"/>
<line stroke="rgba(0, 95, 106, 1)" stroke-width="2px" x1="233.0176680789602" x2="233.65714989931004" y1="323.3976509917583" y2="323.1129353416053"/>
<line stroke="rgba(0, 95, 106, 1)" stroke-width="2px" x1="233.65714989931004" x2="234.30150329672674" y1="323.1129353416053" y2="322.8394235516628"/>
<line stroke="rgba(0, 95, 106, 1)" stroke-width="2px" x1="234.30150329672674" x2="234.9505319949235" y1="322.8394235516628" y2="322.57719893627166"/>
<line stroke="rgba(0, 95, 106, 1)" stroke-width="2px" x1="234.9505319949235" x2="235.60403829347155" y1="322.57719893627166" y2="322.32634137158993"/>
<line stroke="rgba(0, 95, 106, 1)" stroke-width="2px" x1="235.60403829347155" x2="236.2618231280217" y1="322.32634137158993" y2="322.0869272712619"/>
<line stroke="rgba(0, 95, 106, 1)" stroke-width="2px" x1="236.2618231280217" x2="236.9236861309412" y1="322.0869272712619" y2="321.8590295631419"/>
<line stroke="rgba(0, 95, 106, 1)" stroke-width="2px" x1="236.9236861309412" x2="237.58942569234782" y1="321.8590295631419" y2="321.64271766707947"/>
<line stroke="rgba(0, 95, 106, 1)" stroke-width="2px" x1="237.58942569234782" x2="238.25883902152194" y1="321.64271766707947" y2="321.43805747377354"/>
<line stroke="rgba(0, 95, 106, 1)" stroke-width="2px" x1="238.25883902152194" x2="238.93172220867876" y1="321.43805747377354" y2="321.2451113247016"/>
<line stroke="rgba(0, 95, 106, 1)" stroke-width="2px" x1="238.93172220867876" x2="239.6078702870811" y1="321.2451113247016" y2="321.06393799312985"/>
<line stroke="rgba(0, 95, 106, 1)" stroke-width="2px" x1="239.6078702870811" x2="240.28707729547432" y1="321.06393799312985" y2="320.8945926662101"/>
<line stroke="rgba(0, 95, 106, 1)" stroke-width="2px" x1="240.28707729547432" x2="240.96913634082398" y1="320.8945926662101" y2="320.73712692816935"/>
<line stroke="rgba(0, 95, 106, 1)" stroke-width="2px" x1="240.96913634082398" x2="241.65383966133763" y1="320.73712692816935" y2="320.5915887445969"/>
<line stroke="rgba(0, 95, 106, 1)" stroke-width="2px" x1="241.65383966133763" x2="242.34097868975098" y1="320.5915887445969" y2="320.45802244783334"/>
<line stroke="rgba(0, 95, 106, 1)" stroke-width="2px" x1="242.34097868975098" x2="243.03034411685954" y1="320.45802244783334" y2="320.33646872346645"/>
<line stroke="rgba(0, 95, 106, 1)" stroke-width="2px" x1="243.03034411685954" x2="243.72172595527613" y1="320.33646872346645" y2="320.22696459793826"/>
<line stroke="rgba(0, 95, 106, 1)" stroke-width="2px" x1="243.72172595527613" x2="244.41491360339523" y1="320.22696459793826" y2="320.12954342726624"/>
<line stroke="rgba(0, 95, 106, 1)" stroke-width="2px" x1="244.41491360339523" x2="245.10969590954417" y1="320.12954342726624" y2="320.04423488688263"/>
<line stroke="rgba(0, 95, 106, 1)" stroke-width="2px" x1="245.10969590954417" x2="245.80586123630195" y1="320.04423488688263" y2="319.9710649625953"/>
<line stroke="rgba(0, 95, 106, 1)" stroke-width="2px" x1="245.80586123630195" x2="246.50319752496617" y1="319.9710649625953" y2="319.9100559426719"/>
<line stroke="rgba(0, 95, 106, 1)" stroke-width="2px" x1="246.50319752496617" x2="247.20149236014805" y1="319.9100559426719" y2="319.861226411051"/>
<line stroke="rgba(0, 95, 106, 1)" stroke-width="2px" x1="247.20149236014805" x2="247.90053303447624" y1="319.861226411051" y2="319.82459124168093"/>
<line stroke="rgba(0, 95, 106, 1)" stroke-width="2px" x1="247.90053303447624" x2="248.6001066133896" y1="319.82459124168093" y2="319.8001615939892"/>
<line stroke="rgba(0, 95, 106, 1)" stroke-width="2px" x1="248.6001066133896" x2="249.29999999999907" y1="319.8001615939892" y2="319.7879449094831"/>
<line stroke="rgba(0, 95, 106, 1)" stroke-width="2px" x1="249.29999999999907" x2="249.99999999999906" y1="319.7879449094831" y2="319.78794490948303"/>
<line stroke="rgba(0, 95, 106, 1)" stroke-width="2px" x1="249.99999999999906" x2="250.69989338660852" y1="319.78794490948303" y2="319.8001615939892"/>
<line stroke="rgba(0, 95, 106, 1)" stroke-width="2px" x1="250.69989338660852" x2="251.3994669655219" y1="319.8001615939892" y2="319.8245912416809"/>
<line stroke="rgba(0, 95, 106, 1)" stroke-width="2px" x1="251.3994669655219" x2="252.09850763985008" y1="319.8245912416809" y2="319.86122641105095"/>
<line stroke="rgba(0, 95, 106, 1)" stroke-width="2px" x1="252.09850763985008" x2="252.79680247503197" y1="319.86122641105095" y2="319.9100559426718"/>
<line stroke="rgba(0, 95, 106, 1)" stroke-width="2px" x1="252.79680247503197" x2="253.49413876369618" y1="319.9100559426718" y2="319.97106496259516"/>
<line stroke="rgba(0, 95, 106, 1)" stroke-width="2px" x1="253.49413876369618" x2="254.19030409045396" y1="319.97106496259516" y2="320.0442348868825"/>
<line stroke="rgba(0, 95, 106, 1)" stroke-width="2px" x1="254.19030409045396" x2="254.8850863966029" y1="320.0442348868825" y2="320.1295434272661"/>
<line stroke="rgba(0, 95, 106, 1)" stroke-width="2px" x1="254.8850863966029" x2="255.578274044722" y1="320.1295434272661" y2="320.22696459793815"/>
<line stroke="rgba(0, 95, 106, 1)" stroke-width="2px" x1="255.578274044722" x2="256.2696558831386" y1="320.22696459793815" y2="320.3364687234663"/>
<line stroke="rgba(0, 95, 106, 1)" stroke-width="2px" x1="256.2696558831386" x2="256.9590213102472" y1="320.3364687234663" y2="320.4580224478331"/>
<line stroke="rgba(0, 95, 106, 1)" stroke-width="2px" x1="256.9590213102472" x2="257.6461603386605" y1="320.4580224478331" y2="320.5915887445967"/>
<line stroke="rgba(0, 95, 106, 1)" stroke-width="2px" x1="257.6461603386605" x2="258.33086365917416" y1="320.5915887445967" y2="320.7371269281691"/>
<line stroke="rgba(0, 95, 106, 1)" stroke-width="2px" x1="258.33086365917416" x2="259.0129227045238" y1="320.7371269281691" y2="320.8945926662098"/>
<line stroke="rgba(0, 95, 106, 1)" stroke-width="2px" x1="259.0129227045238" x2="259.69212971291705" y1="320.8945926662098" y2="321.06393799312957"/>
<line stroke="rgba(0, 95, 106, 1)" stroke-width="2px" x1="259.69212971291705" x2="260.36827779131943" y1="321.06393799312957" y2="321.2451113247013"/>
<line stroke="rgba(0, 95, 106, 1)" stroke-width="2px" x1="260.36827779131943" x2="261.0411609784762" y1="321.2451113247013" y2="321.43805747377326"/>
<line stroke="rgba(0, 95, 106, 1)" stroke-width="2px" x1="261.0411609784762" x2="261.71057430765035" y1="321.43805747377326" y2="321.6427176670791"/>
<line stroke="rgba(0, 95, 106, 1)" stroke-width="2px" x1="261.71057430765035" x2="262.37631386905696" y1="321.6427176670791" y2="321.8590295631416"/>
<line stroke="rgba(0, 95, 106, 1)" stroke-width="2px" x1="262.37631386905696" x2="263.0381768719765" y1="321.8590295631416" y2="322.0869272712616"/>
<line stroke="rgba(0, 95, 106, 1)" stroke-width="2px" x1="263.0381768719765" x2="263.69596170652665" y1="322.0869272712616" y2="322.32634137158954"/>
<line stroke="rgba(0, 95, 106, 1)" stroke-width="2px" x1="263.69596170652665" x2="264.34946800507464" y1="322.32634137158954" y2="322.57719893627126"/>
<line stroke="rgba(0, 95, 106, 1)" stroke-width="2px" x1="264.34946800507464" x2="264.9984967032714" y1="322.57719893627126" y2="322.8394235516624"/>
<line stroke="rgba(0, 95, 106, 1)" stroke-width="2px" x1="264.9984967032714" x2="265.6428501006882" y1="322.8394235516624" y2="323.11293534160484"/>
<line stroke="rgba(0, 95, 106, 1)" stroke-width="2px" x1="265.6428501006882" x2="266.282331921038" y1="323.11293534160484" y2="323.3976509917579"/>
<line stroke="rgba(0, 95, 106, 1)" stroke-width="2px" x1="266.282331921038" x2="266.91674737196365" y1="323.3976509917579" y2="323.69348377497636"/>
<line stroke="rgba(0, 95, 106, 1)" stroke-width="2px" x1="266.91674737196365" x2="267.5459032043731" y1="323.69348377497636" y2="324.0003435777287"/>
<line stroke="rgba(0, 95, 106, 1)" stroke-width="2px" x1="267.5459032043731" x2="268.1696077713049" y1="324.0003435777287" y2="324.3181369275464"/>
<line stroke="rgba(0, 95, 106, 1)" stroke-width="2px" x1="268.1696077713049" x2="268.7876710863062" y1="324.3181369275464" y2="324.6467670214965"/>
<line stroke="rgba(0, 95, 106, 1)" stroke-width="2px" x1="268.7876710863062" x2="269.39990488130377" y1="324.6467670214965" y2="324.9861337556689"/>
<line stroke="rgba(0, 95, 106, 1)" stroke-width="2px" x1="269.39990488130377" x2="270.00612266395285" y1="324.9861337556689" y2="325.3361337556689"/>
<line stroke="rgba(0, 95, 106, 1)" stroke-width="2px" x1="270.00612266395285" x2="270.6061397744444" y1="325.3361337556689" y2="325.69666040810597"/>
<line stroke="rgba(0, 95, 106, 1)" stroke-width="2px" x1="270.6061397744444" x2="271.1997734417539" y1="325.69666040810597" y2="326.0676038930692"/>
<line stroke="rgba(0, 95, 106, 1)" stroke-width="2px" x1="271.1997734417539" x2="271.7868428393157" y1="326.0676038930692" y2="326.44885121757966"/>
<line stroke="rgba(0, 95, 106, 1)" stroke-width="2px" x1="271.7868428393157" x2="272.36716914010424" y1="326.44885121757966" y2="326.84028625000917"/>
<line stroke="rgba(0, 95, 106, 1)" stroke-width="2px" x1="272.36716914010424" x2="272.94057557110654" y1="326.84028625000917" y2="327.24178975545493"/>
<line stroke="rgba(0, 95, 106, 1)" stroke-width="2px" x1="272.94057557110654" x2="273.506887467169" y1="327.24178975545493" y2="327.65323943205965"/>
<line stroke="rgba(0, 95, 106, 1)" stroke-width="2px" x1="273.506887467169" x2="274.0659323242021" y1="327.65323943205965" y2="328.07450994826604"/>
<line stroke="rgba(0, 95, 106, 1)" stroke-width="2px" x1="274.0659323242021" x2="274.61753985172686" y1="328.07450994826604" y2="328.505472980994"/>
<line stroke="rgba(0, 95, 106, 1)" stroke-width="2px" x1="274.61753985172686" x2="275.1615420247467" y1="328.505472980994" y2="328.9459972547289"/>
<line stroke="rgba(0, 95, 106, 1)" stroke-width="2px" x1="275.1615420247467" x2="275.69777313493006" y1="328.9459972547289" y2="329.39594858150946"/>
<line stroke="rgba(0, 95, 106, 1)" stroke-width="2px" x1="275.69777313493006" x2="276.226069841086" y1="329.39594858150946" y2="329.8551899018028"/>
<line stroke="rgba(0, 95, 106, 1)" stroke-width="2px" x1="276.226069841086" x2="276.7462712189202" y1="329.8551899018028" y2="330.323581326254"/>
<line stroke="rgba(0, 95, 106, 1)" stroke-width="2px" x1="276.7462712189202" x2="277.2582188100536" y1="330.323581326254" y2="330.8009801782977"/>
<line stroke="rgba(0, 95, 106, 1)" stroke-width="2px" x1="277.2582188100536" x2="277.7617566702907" y1="330.8009801782977" y2="331.287241037619"/>
<line stroke="rgba(0, 95, 106, 1)" stroke-width="2px" x1="277.7617566702907" x2="278.2567314171213" y1="331.287241037619" y2="331.7822157844496"/>
<line stroke="rgba(0, 95, 106, 1)" stroke-width="2px" x1="278.2567314171213" x2="278.7429922764426" y1="331.7822157844496" y2="332.2857536446866"/>
<line stroke="rgba(0, 95, 106, 1)" stroke-width="2px" x1="278.7429922764426" x2="279.2203911284863" y1="332.2857536446866" y2="332.79770123582006"/>
<line stroke="rgba(0, 95, 106, 1)" stroke-width="2px" x1="279.2203911284863" x2="279.68878255293754" y1="332.79770123582006" y2="333.3179026136542"/>
<line stroke="rgba(0, 95, 106, 1)" stroke-width="2px" x1="279.68878255293754" x2="280.14802387323095" y1="333.3179026136542" y2="333.8461993198101"/>
<line stroke="rgba(0, 95, 106, 1)" stroke-width="2px" x1="280.14802387323095" x2="280.59797520001155" y1="333.8461993198101" y2="334.3824304299934"/>
<line stroke="rgba(0, 95, 106, 1)" stroke-width="2px" x1="280.59797520001155" x2="281.0384994737464" y1="334.3824304299934" y2="334.92643260301327"/>
<line stroke="rgba(0, 95, 106, 1)" stroke-width="2px" x1="281.0384994737464" x2="281.4694625064744" y1="334.92643260301327" y2="335.478040130538"/>
<line stroke="rgba(0, 95, 106, 1)" stroke-width="2px" x1="281.4694625064744" x2="281.8907330226808" y1="335.478040130538" y2="336.03708498757106"/>
<line stroke="rgba(0, 95, 106, 1)" stroke-width="2px" x1="281.8907330226808" x2="282.3021826992856" y1="336.03708498757106" y2="336.60339688363354"/>
<line stroke="rgba(0, 95, 106, 1)" stroke-width="2px" x1="282.3021826992856" x2="282.7036862047313" y1="336.60339688363354" y2="337.1768033146358"/>
<line stroke="rgba(0, 95, 106, 1)" stroke-width="2px" x1="282.7036862047313" x2="283.09512123716087" y1="337.1768033146358" y2="337.75712961542433"/>
<line stroke="rgba(0, 95, 106, 1)" stroke-width="2px" x1="283.09512123716087" x2="283.4763685616714" y1="337.75712961542433" y2="338.3441990129861"/>
<line stroke="rgba(0, 95, 106, 1)" stroke-width="2px" x1="283.4763685616714" x2="283.84731204663467" y1="338.3441990129861" y2="338.9378326802956"/>
<line stroke="rgba(0, 95, 106, 1)" stroke-width="2px" x1="283.84731204663467" x2="284.2078386990718" y1="338.9378326802956" y2="339.53784979078705"/>
<line stroke="rgba(0, 95, 106, 1)" stroke-width="2px" x1="284.2078386990718" x2="284.5578386990718" y1="339.53784979078705" y2="340.1440675734362"/>
<line stroke="rgba(0, 95, 106, 1)" stroke-width="2px" x1="284.5578386990718" x2="284.8972054332442" y1="340.1440675734362" y2="340.75630136843375"/>
<line stroke="rgba(0, 95, 106, 1)" stroke-width="2px" x1="284.8972054332442" x2="285.2258355271943" y1="340.75630136843375" y2="341.374364683435"/>
<line stroke="rgba(0, 95, 106, 1)" stroke-width="2px" x1="285.2258355271943" x2="285.543628877012" y1="341.374364683435" y2="341.9980692503668"/>
<line stroke="rgba(0, 95, 106, 1)" stroke-width="2px" x1="285.543628877012" x2="285.85048867976434" y1="341.9980692503668" y2="342.62722508277625"/>
<line stroke="rgba(0, 95, 106, 1)" stroke-width="2px" x1="285.85048867976434" x2="286.1463214629828" y1="342.62722508277625" y2="343.2616405337019"/>
<line stroke="rgba(0, 95, 106, 1)" stroke-width="2px" x1="286.1463214629828" x2="286.4310371131359" y1="343.2616405337019" y2="343.9011223540517"/>
<line stroke="rgba(0, 95, 106, 1)" stroke-width="2px" x1="286.4310371131359" x2="286.70454890307843" y1="343.9011223540517" y2="344.5454757514684"/>
<line stroke="rgba(0, 95, 106, 1)" stroke-width="2px" x1="286.70454890307843" x2="286.9667735184696" y1="344.5454757514684" y2="345.19450444966515"/>
<line stroke="rgba(0, 95, 106, 1)" stroke-width="2px" x1="286.9667735184696" x2="287.21763108315133" y1="345.19450444966515" y2="345.8480107482132"/>
<line stroke="rgba(0, 95, 106, 1)" stroke-width="2px" x1="287.21763108315133" x2="287.4570451834793" y1="345.8480107482132" y2="346.5057955827633"/>
<line stroke="rgba(0, 95, 106, 1)" stroke-width="2px" x1="287.4570451834793" x2="287.68494289159935" y1="346.5057955827633" y2="347.16765858568283"/>
<line stroke="rgba(0, 95, 106, 1)" stroke-width="2px" x1="287.68494289159935" x2="287.9012547876618" y1="347.16765858568283" y2="347.83339814708944"/>
<line stroke="rgba(0, 95, 106, 1)" stroke-width="2px" x1="287.9012547876618" x2="288.1059149809677" y1="347.83339814708944" y2="348.50281147626356"/>
<line stroke="rgba(0, 95, 106, 1)" stroke-width="2px" x1="288.1059149809677" x2="288.29886113003965" y1="348.50281147626356" y2="349.17569466342036"/>
<line stroke="rgba(0, 95, 106, 1)" stroke-width="2px" x1="288.29886113003965" x2="288.4800344616114" y1="349.17569466342036" y2="349.85184274182274"/>
<line stroke="rgba(0, 95, 106, 1)" stroke-width="2px" x1="288.4800344616114" x2="288.6493797885312" y1="349.85184274182274" y2="350.5310497502159"/>
<line stroke="rgba(0, 95, 106, 1)" stroke-width="2px" x1="288.6493797885312" x2="288.8068455265719" y1="350.5310497502159" y2="351.2131087955656"/>
<line stroke="rgba(0, 95, 106, 1)" stroke-width="2px" x1="288.8068455265719" x2="288.9523837101444" y1="351.2131087955656" y2="351.89781211607925"/>
<line stroke="rgba(0, 95, 106, 1)" stroke-width="2px" x1="288.9523837101444" x2="289.085950006908" y1="351.89781211607925" y2="352.5849511444926"/>
<line stroke="rgba(0, 95, 106, 1)" stroke-width="2px" x1="289.085950006908" x2="289.20750373127487" y1="352.5849511444926" y2="353.27431657160116"/>
<line stroke="rgba(0, 95, 106, 1)" stroke-width="2px" x1="289.20750373127487" x2="289.317007856803" y1="353.27431657160116" y2="353.96569841001775"/>
<line stroke="rgba(0, 95, 106, 1)" stroke-width="2px" x1="289.317007856803" x2="289.4144290274751" y1="353.96569841001775" y2="354.65888605813683"/>
<line stroke="rgba(0, 95, 106, 1)" stroke-width="2px" x1="289.4144290274751" x2="289.4997375678587" y1="354.65888605813683" y2="355.35366836428574"/>
<line stroke="rgba(0, 95, 106, 1)" stroke-width="2px" x1="289.4997375678587" x2="289.5729074921461" y1="355.35366836428574" y2="356.04983369104355"/>
<line stroke="rgba(0, 95, 106, 1)" stroke-width="2px" x1="289.5729074921461" x2="289.63391651206945" y1="356.04983369104355" y2="356.7471699797078"/>
<line stroke="rgba(0, 95, 106, 1)" stroke-width="2px" x1="289.63391651206945" x2="289.6827460436904" y1="356.7471699797078" y2="357.44546481488965"/>
<line stroke="rgba(0, 95, 106, 1)" stroke-width="2px" x1="289.6827460436904" x2="289.71938121306044" y1="357.44546481488965" y2="358.14450548921786"/>
<line stroke="rgba(0, 95, 106, 1)" stroke-width="2px" x1="289.71938121306044" x2="289.7438108607522" y1="358.14450548921786" y2="358.84407906813124"/>
<line stroke="rgba(0, 95, 106, 1)" stroke-width="2px" x1="289.7438108607522" x2="289.75602754525835" y1="358.84407906813124" y2="359.5439724547407"/>
<line stroke="rgba(0, 95, 106, 1)" stroke-width="2px" x1="289.75602754525835" x2="209.75602754525832" y1="359.5439724547407" y2="359.5439724547431"/>
<line stroke="rgba(0, 95, 106, 1)" stroke-width="2px" x1="209.75602754525832" x2="259.75602754525835" y1="359.5439724547431" y2="359.5439724547416"/>
<line stroke="rgba(0, 95, 106, 1)" stroke-width="2px" x1="359.75602754525835" x2="359.7560275452538" y1="359.54397245473854" y2="209.54397245473857"/>
<line stroke="rgba(0, 95, 106, 1)" stroke-width="2px" x1="359.7560275452538" x2="359.7560275452598" y1="209.54397245473857" y2="409.54397245473854"/>
<line stroke="rgba(0, 95, 106, 1)" stroke-width="2px" x1="459.7560275452598" x2="459.7560275452538" y1="409.5439724547355" y2="209.54397245473552"/>
<line stroke="rgba(0, 95, 106, 1)" stroke-width="2px" x1="459.7560275452538" x2="459.7560275452598" y1="209.54397245473552" y2="409.5439724547355"/>
</svg>